<?xml version="1.0" encoding="utf-8"?>
<!-- Svg Vector Icons : http://www.onlinewebfonts.com/icon -->
<!DOCTYPE svg PUBLIC "-//W3C//DTD SVG 1.1//EN" "http://www.w3.org/Graphics/SVG/1.1/DTD/svg11.dtd">
<svg version="1.1" xmlns="http://www.w3.org/2000/svg" xmlns:xlink="http://www.w3.org/1999/xlink" x="0px" y="0px" viewBox="0 0 1000 1000" enable-background="new 0 0 1000 1000" xml:space="preserve">
<metadata> Svg Vector Icons : http://www.onlinewebfonts.com/icon </metadata>
<g><g transform="translate(0.000000,511.000000) scale(0.100000,-0.100000)"><path d="M4037.7,4137.1c-58-15.5-193.2-69.6-301.4-119.8c-361.3-172-720.7-444.4-1091.7-825.1c-338.1-349.7-560.3-655-722.6-998.9c-85-177.8-86.9-179.7-278.2-318.8C579,1103.5,3.2,2.2,113.4-1045.1c42.5-407.7,189.4-935.2,357.5-1283c260.8-543,691.7-983.5,1145.8-1172.9c311.1-129.5,676.3-177.8,745.8-100.5c42.5,46.4,42.5,58-25.1,314.9c-204.8,796.1-330.4,1768-299.5,2345.7C2061-475.1,2142.2-121.5,2291,176.1c81.2,160.4,218.3,396.1,239.6,409.6c7.7,3.9,1.9-50.2-11.6-123.7c-71.5-382.6-71.5-854.1,0-1058.9c27.1-75.4,25.1-81.1-29-162.3c-229.9-340.1-330.4-726.5-286-1116.8c131.4-1180.6,1373.8-2015.3,2552.5-1713.9c249.2,63.8,475.3,177.8,680.1,340.1l166.2,133.3l941-415.4l942.9-415.4l202.9,7.7c459.9,19.3,939.1,276.3,1429.8,767.1c504.3,504.3,772.9,1014.4,778.7,1478.1l1.9,173.9l-415.4,937.1l-415.4,937.1l127.5,158.4c158.4,195.1,276.3,430.9,342,678.2c42.5,158.4,50.2,231.9,52.2,467.6c1.9,295.6-15.5,407.7-98.6,666.6c-212.5,660.8-740,1178.6-1397,1368c-121.7,36.7-193.2,42.5-454.1,42.5c-270.5,0-326.6-5.8-454.1-44.4c-160.4-52.2-334.3-135.3-459.9-220.3l-81.2-56l-135.3,32.9c-106.3,25.1-191.3,29-419.3,23.2c-340.1-11.6-618.3-67.6-1053-208.7c-228-73.4-286-86.9-274.4-61.8c79.2,187.4,106.3,457.9,61.8,610.6c-32.9,108.2-231.9,309.2-336.2,338.1C4385.5,4177.7,4165.2,4171.9,4037.7,4137.1z M4410.6,3911c85-34.8,183.6-150.7,199-237.7c29-150.7-96.6-494.6-286-788.3c-46.4-73.4-98.5-144.9-114-156.5c-15.5-11.6-197.1-58-403.8-102.4c-508.2-110.1-991.2-235.7-1331.3-347.8c-154.6-52.2-284-92.8-286-90.8c-11.6,9.7,268.6,421.2,374.9,552.6c156.5,193.2,558.4,581.6,749.7,726.5c305.3,231.9,595.1,388.4,815.4,440.5C4273.4,3943.9,4333.3,3943.9,4410.6,3911z M7996.8,3462.8c282.1-69.6,589.3-247.3,809.6-469.5c229.9-231.9,374.9-483.1,481.1-827c46.4-152.6,52.2-200.9,52.2-479.2c1.9-351.7-19.3-456-141.1-714.9c-67.6-141-208.7-355.5-235.7-357.5c-5.8,0-38.7,65.7-75.4,146.9c-61.8,143-63.8,148.8-30.9,199c274.4,429,301.4,944.8,71.5,1422.1c-315,660.8-1064.6,987.4-1684.9,734.2l-108.2-42.5l-114,85c-61.8,46.4-121.7,92.7-129.5,102.4c-40.6,38.6,313,191.3,529.4,229.9C7556.2,3516.9,7836.4,3501.4,7996.8,3462.8z M6555.3,3167.1c65.7-30.9,204.8-123.7,309.2-200.9c566.1-427,1128.4-1089.8,1582.5-1868.4c59.9-100.5,357.5-749.7,660.8-1439.5c616.4-1400.8,587.4-1313.9,514-1603.7C9473-2527.1,8818-3263.3,8184.2-3558.9c-170-81.2-328.5-127.5-496.6-146.8l-108.2-11.6l-1263.7,554.6c-1018.3,446.3-1317.8,585.5-1541.9,720.7c-796.1,473.4-1495.5,1091.7-1878.1,1659.8C2731.5-540.8,2716-486.7,2716-148.5c0,191.3,11.6,361.3,32.9,502.4c50.2,303.4,146.8,705.3,185.5,767.1c108.2,177.8,763.2,832.8,1186.4,1190.2c96.6,81.2,286,253.1,421.2,380.6l243.5,231.9l249.2,81.2c286,94.7,670.5,189.4,867.6,216.4c75.3,9.7,224.1,15.5,334.3,11.6C6412.4,3227,6449.1,3221.2,6555.3,3167.1z M7962,2921.7c382.6-112.1,689.8-423.1,821.2-828.9c40.6-123.7,52.2-195.2,52.2-357.5c0-112.1-9.7-241.5-23.2-289.8c-32.8-112.1-100.5-270.5-115.9-270.5c-5.8,0-32.8,36.7-58,83.1c-112.1,199-463.7,711.1-643.4,933.3c-106.3,133.3-293.7,345.9-417.4,473.4c-121.7,127.5-218.3,233.8-214.5,237.7C7417.1,2954.6,7805.5,2968.1,7962,2921.7z M3668.6,2243.5C3121.8,1745,2660,1227.2,2368.2,788.6c-473.4-713-589.3-1142-566.1-2111.9c13.5-616.4,98.5-1223.1,257-1853c25.1-102.4,46.4-191.3,46.4-197.1c0-27-98.5-7.7-274.4,52.2c-656.9,228-1145.8,856-1377.7,1775.7c-27.1,106.3-61.8,276.3-77.3,378.7C217.7-125.4,727.8,891,1813.7,1694.8c255.1,189.4,535.2,305.3,1132.3,469.5c293.7,81.1,790.3,202.9,838.6,206.7C3798.1,2373,3745.9,2315,3668.6,2243.5z M2777.9-1047l98.5-135.3l-36.7-87c-65.7-150.7-96.6-309.2-96.6-475.3c1.9-622.2,465.7-1186.4,1111-1350.6c371-94.7,832.8-21.2,1114.9,175.8c67.6,48.3,85,46.4,239.6-23.2l133.3-59.9l-83.1-73.4c-108.2-96.6-345.9-218.3-525.6-270.5c-218.3-63.8-589.3-73.4-834.7-23.2C3203-3224.6,2660-2720.3,2478.4-2049.8c-52.2,193.2-46.4,546.8,11.6,732.3c34.8,112.1,170,405.8,187.4,405.8C2679.3-911.8,2723.8-971.7,2777.9-1047z M3757.5-2038.2c233.8-185.5,624.1-456,877.2-610.6l164.2-96.6l-108.2-50.2c-324.6-148.8-684-135.3-1029.9,36.7c-371,185.5-602.9,492.7-664.7,881.1c-21.2,125.6-3.9,330.4,36.7,434.7l19.3,52.2l247.3-237.7C3434.8-1761.9,3641.6-1945.5,3757.5-2038.2z"/></g></g>
</svg>