<?xml version="1.0" encoding="utf-8"?>
<!-- Svg Vector Icons : http://www.onlinewebfonts.com/icon -->
<!DOCTYPE svg PUBLIC "-//W3C//DTD SVG 1.1//EN" "http://www.w3.org/Graphics/SVG/1.1/DTD/svg11.dtd">
<svg version="1.1" xmlns="http://www.w3.org/2000/svg" xmlns:xlink="http://www.w3.org/1999/xlink" x="0px" y="0px" viewBox="0 0 1000 1000" enable-background="new 0 0 1000 1000" xml:space="preserve">
<metadata> Svg Vector Icons : http://www.onlinewebfonts.com/icon </metadata>
<g><g transform="translate(0.000000,511.000000) scale(0.100000,-0.100000)"><path d="M2210.6,3484.2c-229.7-34.7-324.3-57.9-513.5-127.4c-608.1-222-986.4-648.6-1165.9-1316.5c-44.4-164.1-48.3-214.3-48.3-584.9C481,886,527.4,563.6,668.3,164c25.1-73.3,44.4-135.1,40.5-137c-1.9-1.9-108.1,3.9-233.6,13.5C212.7,61.7,168.3,54,123.9-11.6c-50.2-77.2-21.2-140.9,84.9-185.3C816.9-457.5,1278.3-774.1,1452-1052.1c137-222,281.8-326.2,449.8-326.2c173.7,0,318.5,113.9,368.7,293.4c50.2,167.9,17.4,289.6-123.5,451.7l-75.3,86.9l-25.1,335.9c-15.4,198.8-21.2,457.5-13.5,635.1c9.7,262.5,19.3,334,90.7,615.8c44.4,175.7,113.9,478.7,154.4,675.6l73.3,357.1l71.4,5.8c104.2,9.6,250.9-69.5,388-208.5c84.9-86.9,156.4-191.1,283.8-424.7l171.8-310.8l-57.9-52.1c-115.8-108.1-119.7-345.5-9.6-644.7c57.9-162.1,61.8-287.6,15.4-528.9c-81.1-428.5,5.8-766.3,252.9-980.6c133.2-113.9,218.1-312.7,260.6-600.3c23.2-166,129.3-600.4,162.1-666c29-54,517.3-584.9,710.4-768.3c158.3-150.6,222-177.6,417-177.6c231.6,0,283.8,34.7,700.7,472.9c191.1,202.7,368.7,397.6,395.7,436.3c50.2,77.2,164.1,496.1,196.9,731.6c40.5,289.6,113.9,445.9,291.5,617.7c100.4,96.5,139,150.6,171.8,239.3c67.6,183.4,88.8,364.8,61.8,554c-73.3,542.4-73.3,471-3.8,664.1c81.1,222,100.4,432.4,52.1,559.8c-19.3,48.3-40.5,86.9-46.3,86.9c-7.7,0-29,13.5-48.3,27c-30.9,25.1-21.2,48.3,135.1,339.7c129.3,239.4,195,341.7,281.8,428.5c125.5,127.4,274.1,208.5,384.2,208.5c67.6,0,71.4-3.9,84.9-71.4c25.1-156.4,166-779.9,231.6-1028.9c84.9-328.2,100.4-611.9,65.6-1138.9l-25.1-372.5l-83-92.7c-150.6-169.9-187.2-289.6-135.1-463.3c50.2-179.5,195-293.4,368.7-293.4c167.9,0,297.3,92.6,442.1,314.6c112,171.8,254.8,306.9,492.2,465.2C9212-476.8,9536.3-307,9791.1-196.9c106.2,44.4,135.1,108.1,84.9,185.3c-42.5,65.6-86.9,73.3-345.5,54.1c-125.5-9.7-225.9-9.7-225.9-1.9c0,7.7,17.4,57.9,38.6,110C9480.3,498,9544,961.3,9530.5,1523c-7.7,403.4-9.6,420.8-71.4,608.1c-239.4,741.2-704.6,1156.3-1490.2,1326.2c-285.7,61.8-903.4,61.8-1239.3,0c-471-86.9-772.1-227.8-1034.7-486.5c-220-216.2-378.3-472.9-501.9-808.8l-52.1-142.8h-133.2h-133.2l-48.3,133.2c-121.6,328.2-250.9,542.4-455.6,760.6c-297.3,314.6-600.3,463.3-1127.3,550.1C2990.5,3505.5,2430.7,3517.1,2210.6,3484.2z M3112.1,3231.4c295.3-38.6,496.1-92.6,687.2-187.2c343.6-167.9,671.8-577.2,806.9-1005.7c40.5-131.3,79.1-86.9-320.4-357.1c-399.6-272.2-656.3-424.7-733.5-436.3l-67.6-11.6l-173.7,322.4c-152.5,283.8-193,343.6-330.1,482.6c-115.8,119.7-187.2,173.7-289.6,222c-129.3,61.8-139,63.7-364.8,59.8c-420.8-5.8-625.4-88.8-1082.9-432.4c-150.6-112-301.1-214.3-335.9-225.8c-75.3-27-129.3-3.9-156.4,67.6c-57.9,152.5,125.5,644.7,337.8,916.9c237.4,301.1,633.2,513.5,1088.7,582.9C2405.6,3266.1,2847.7,3266.1,3112.1,3231.4z M7829.9,3231.4c718.1-115.8,1185.2-501.9,1386-1144.7c30.9-96.5,50.2-204.6,50.2-274.1c0-100.4-5.8-119.7-46.3-144.8c-79.1-52.1-119.7-30.9-519.2,274.1c-368.7,283.8-610,372.6-1007.6,378.3c-231.6,3.9-233.6,3.9-376.4-67.6c-102.3-50.2-183.4-110-279.9-206.6c-144.8-146.7-173.7-189.2-372.5-567.5c-127.4-243.2-129.3-245.2-187.2-233.6c-30.9,5.8-140.9,59.9-241.3,119.7c-193,113.9-702.6,451.7-801.1,530.8l-56,48.3l32.8,108.1c92.7,293.4,316.6,637,530.8,814.6c258.7,212.3,559.8,322.4,1055.9,380.3C7162,3268,7669.7,3258.4,7829.9,3231.4z M2094.8,2021c-3.9-25.1-40.5-187.2-77.2-361c-38.6-175.7-98.4-436.3-135.1-579.1c-90.7-355.2-113.9-579.1-98.5-978.7c5.8-181.4,17.4-357.1,23.2-389.9l11.6-57.9l-160.2,83c-189.2,98.4-343.6,158.3-519.3,202.7L1013.8-29l-61.8,144.8C822.7,416.9,751.3,760.5,722.3,1206.4l-11.6,212.3l117.8-7.7c154.4-11.6,247.1,34.7,536.6,260.6c266.4,208.5,399.6,291.5,563.7,347.5C2091,2075.1,2108.3,2075.1,2094.8,2021z M8136.8,2001.7c135.1-52.1,243.2-121.6,525.1-337.8c301.1-227.8,376.4-264.5,528.9-252.9l112,7.7l-9.7-183.4c-15.5-268.3-59.9-584.9-113.9-789.5c-54-198.8-167.9-463.3-206.6-474.9c-13.5-3.9-94.6-27-179.5-50.2c-84.9-23.2-252.9-88.8-374.5-146.7l-218.1-104.2l11.6,83c27,198.8,32.8,617.7,13.5,833.9c-13.5,135.1-50.2,337.8-88.8,482.6c-54,208.5-158.3,660.2-212.3,934.3l-13.5,63.7l63.7-13.5C8011.3,2046.1,8084.7,2023,8136.8,2001.7z M5378.3,1635c393.8-289.6,903.4-600.3,1040.4-631.2c54-13.5,127.4-40.5,164.1-59.8l67.6-36.7l-195-1.9c-158.3,0-204.6-5.8-235.5-32.8c-50.2-44.4-370.6-683.3-370.6-739.3c0-61.8,69.5-167.9,119.7-179.5c27-7.7,131.3,25.1,293.4,92.6c137.1,57.9,254.8,106.2,260.6,106.2c25.1,0,69.5-361,69.5-550.1c0-260.6-23.2-318.5-191.1-482.6c-88.8-88.8-156.3-175.7-193-250.9c-30.9-63.7-57.9-119.7-61.8-121.6c-1.9-3.9-54.1,40.5-113.9,100.4c-123.5,119.7-349.4,243.2-540.5,291.5c-279.9,73.3-716.1,71.4-998,0c-183.4-48.3-361-144.8-492.2-268.3c-67.6-61.8-125.5-110-129.3-106.2c-1.9,3.9-25.1,52.1-50.2,104.2c-27,57.9-102.3,152.5-183.4,233.6c-162.1,160.2-204.6,256.7-208.5,476.8c-1.9,140.9,59.8,573.3,83,573.3c5.8,0,112-42.5,233.6-94.6C4056.1-75.3,4044.5-71.5,4112-5.8c104.2,106.2,100.4,129.3-86.9,494.2c-92.7,181.5-185.3,347.5-206.6,368.7c-29,32.8-69.5,40.5-233.6,48.3l-196.9,9.7l90.7,42.5c50.2,23.1,121.6,48.3,160.2,56c104.2,19.3,725.8,401.5,1032.7,635.1c142.8,110,195,125.5,378.3,119.7l158.3-5.8L5378.3,1635z M3575.4,654.4h92.7l88.8-175.7c48.3-96.5,83-179.5,79.1-183.4c-3.9-3.8-92.7,29-196.9,73.4l-189.2,83l-34.8,100.4c-36.7,108.1-30.9,129.3,30.9,113.9C3467.3,660.1,3525.2,654.4,3575.4,654.4z M6640.8,648.6c0-13.5-13.5-65.6-30.9-113.9c-29-86.9-30.9-88.8-223.9-167.9c-106.2-44.4-196.9-77.2-200.7-75.3c-1.9,3.8,34.7,84.9,84.9,179.5l92.7,173.7l104.2,11.6c57.9,5.8,121.6,11.6,140.9,13.5C6625.4,671.7,6640.8,662.1,6640.8,648.6z M1100.7-301.2c345.5-92.7,720-310.8,884.1-515.4c65.6-83,79.1-160.2,38.6-233.6c-81.1-154.4-214.3-106.2-364.8,131.3c-100.4,158.3-330.1,376.4-557.9,528.9C911.5-264.5,896.1-252.9,909.6-252.9C913.4-252.9,1000.3-274.2,1100.7-301.2z M9090.4-260.6c-3.9-3.9-88.8-59.8-185.3-125.5c-212.3-139-461.3-370.6-548.2-509.6c-81.1-129.3-129.3-185.3-198.8-220.1c-102.3-52.1-204.6,29-204.6,166c0,131.3,274.1,368.7,608.1,525.1C8723.6-349.4,9129-223.9,9090.4-260.6z M5457.5-1108c274.1-79.2,469.1-229.7,563.7-428.5l40.5-86.9l-36.7-169.9c-86.8-399.6-96.5-422.8-223.9-542.4c-237.4-222-515.4-322.3-849.3-305c-241.3,11.6-389.9,61.8-584.9,195c-208.5,140.9-247.1,198.8-312.7,451.7c-86.9,330.1-90.7,384.2-32.8,498c106.2,208.5,349.4,368.7,640.9,422.8C4888-1032.8,5250.9-1048.2,5457.5-1108z M5214.3-2959.3c-71.4-67.6-86.9-73.3-189.2-73.3c-117.7,0-218.1,42.5-252.9,110c-17.4,32.8-3.9,34.7,250.9,34.7h268.3L5214.3-2959.3z"/><path d="M4739.4-1264.4c-374.5-98.4-569.5-202.7-569.5-303.1c0-88.8,48.3-131.3,368.7-318.5c202.7-119.7,326.2-202.7,326.2-222c0-17.4-15.4-44.4-32.8-61.8c-67.6-57.9-135.1-59.9-308.9-3.9c-150.6,50.2-169.9,52.1-216.2,27c-63.7-36.7-77.2-135.1-27-185.3c21.2-21.2,100.4-56,177.6-81.1c196.9-61.8,389.9-54,488.4,21.3c59.8,44.4,73.3,48.3,92.6,25.1c79.2-96.5,370.6-112,584.9-28.9c139,52.1,189.2,115.8,146.7,189.2c-50.2,86.9-79.2,92.7-222,42.5c-179.5-61.8-306.9-63.7-357.1-1.9c-21.3,25.1-34.7,54.1-30.9,65.6c1.9,9.7,152.5,106.2,332,214.3c362.9,216.2,399.6,254.8,355.2,362.9c-29,71.4-202.7,158.3-472.9,237.4C5127.4-1212.3,4953.7-1206.5,4739.4-1264.4z M5260.6-1509.6c158.3-38.6,250.9-73.3,237.4-84.9c-23.2-23.2-465.2-279.9-482.6-279.9c-36.7,0-480.7,276-465.2,289.6c23.2,21.2,195,75.3,335.9,104.2C5017.4-1453.6,5048.3-1455.5,5260.6-1509.6z"/></g></g>
</svg>