<?xml version="1.0" encoding="utf-8"?>
<!-- Svg Vector Icons : http://www.onlinewebfonts.com/icon -->
<!DOCTYPE svg PUBLIC "-//W3C//DTD SVG 1.1//EN" "http://www.w3.org/Graphics/SVG/1.1/DTD/svg11.dtd">
<svg version="1.1" xmlns="http://www.w3.org/2000/svg" xmlns:xlink="http://www.w3.org/1999/xlink" x="0px" y="0px" viewBox="0 0 1000 1000" enable-background="new 0 0 1000 1000" xml:space="preserve">
<metadata> Svg Vector Icons : http://www.onlinewebfonts.com/icon </metadata>
<g><g transform="translate(0.000000,511.000000) scale(0.100000,-0.100000)"><path d="M3736.2,4982.2c-355.5-85-720.8-454.1-968.1-979.7c-110.1-230-156.5-365.2-299.5-850.2c-59.9-210.6-114-386.5-119.8-390.3c-3.9-5.8-85-30.9-179.7-58c-425.1-123.7-715-382.6-772.9-689.9c-17.4-96.6,0-143,67.6-170c81.2-32.9,143,9.7,170,121.7c52.2,201,251.2,388.4,508.2,475.4c65.7,21.3,123.7,38.6,125.6,34.8c3.9-3.9-5.8-52.2-21.2-110.2c-15.5-58-40.6-183.6-58-280.2l-29-175.8l56-162.3c30.9-90.8,71.5-202.9,90.8-251.2c38.6-98.6,687.9-919.8,738.2-935.3c17.4-5.8,216.4-36.7,438.7-69.6c224.1-30.9,432.8-61.8,463.8-67.6l59.9-9.7l-34.8-199c-17.4-108.2-42.5-340.1-54.1-515.9c-13.5-175.9-27.1-322.7-30.9-328.5c-5.8-3.9-71.5,7.7-148.8,27C3083.1-436.1,2619.3-11,2480.2,551.3c-17.4,69.6-30.9,146.9-30.9,173.9c0,121.7-129.5,177.8-214.5,92.8c-34.8-34.8-38.6-54.1-27-129.5c38.6-276.3,166.2-583.6,342-821.2C2799-469,3201-718.3,3689.9-838.1l208.7-52.2v-139.1c0-168.1,7.7-166.2-270.5-92.8c-446.4,119.8-931.4,419.3-1414.5,875.4C2109.2-148.2,2010.6-69,1995.2-69c-34.8,0-125.6-83.1-125.6-115.9c0-125.6,533.3-597.1,973.9-859.9c311.1-185.5,699.5-334.3,960.4-367.1l108.2-13.5l13.5-253.1c38.6-734.3,154.6-1321.7,324.7-1640.6c32.8-61.8,56-115.9,52.2-119.8c-3.8-3.8-137.2-75.4-297.6-158.4c-388.4-201-396.1-206.8-396.1-295.7c0-123.7,104.3-303.4,278.3-475.4c127.5-127.5,191.3-173.9,340.1-247.3c270.5-133.3,438.6-172,753.6-173.9c150.7-1.9,309.2,7.7,376.8,23.2c311.1,67.6,618.3,237.7,803.9,444.4c137.2,150.7,233.8,340.1,226.1,440.6c-5.8,83.1-17.4,90.8-456,318.8l-251.2,131.4l67.6,123.7c125.6,239.6,208.7,546.9,264.7,997.1c29,220.3,69.6,713,69.6,830.9c0,46.4,9.7,52.2,139.1,73.4c330.4,58,763.3,243.5,1111.1,479.2c243.5,164.3,338.2,243.5,581.6,479.2c150.7,146.9,197.1,204.8,197.1,243.5c0,75.3-42.5,121.7-112.1,121.7c-52.2,0-94.7-30.9-258.9-193.2c-440.6-427.1-954.6-738.2-1420.3-858c-218.4-54.1-237.7-52.2-237.7,36.7c0,38.7,5.8,102.4,11.6,141.1l11.6,69.6l177.8,44.4c742,181.6,1259.9,649.3,1451.2,1306.3c79.2,272.5,58,394.2-71.5,394.2c-71.5,0-104.3-52.2-131.4-202.9c-77.3-458-396.1-865.7-859.9-1097.6c-129.5-65.7-376.8-152.7-506.3-177.8c-58-11.6-61.8-7.7-71.5,52.2c-5.8,34.8-13.5,164.2-19.3,286c-5.8,121.7-29,326.6-48.3,454.1c-21.3,125.6-34.8,233.8-30.9,237.7c3.9,3.9,214.5,36.7,467.6,73.4c253.1,36.7,475.4,71.5,492.8,77.3c17.4,5.8,183.6,199,369.1,429c291.8,367.2,344,440.6,394.2,573.9c117.9,305.3,123.7,340.1,90.8,527.5c-15.5,92.8-40.6,216.4-56,274.4c-15.5,58-25.1,106.3-21.3,110.2c1.9,3.9,59.9-13.5,125.6-34.8c257-87,456-274.4,508.2-475.4c27.1-112.1,88.9-154.6,170-121.7c67.6,27.1,85,73.4,67.6,170c-58,307.3-347.8,566.2-772.9,689.9c-94.7,27.1-173.9,52.2-177.8,56c-3.9,3.9-38.7,110.1-75.4,235.8c-284.1,970-456,1325.6-809.7,1679.2c-289.9,289.9-581.6,386.5-946.9,309.2c-141-29-202.9-75.4-202.9-148.8c0-19.3,56-96.6,125.6-170c287.9-307.2,454.1-672.5,541.1-1192.3c48.3-291.8,38.6-297.6-123.7-63.8c-340.1,488.9-535.3,867.6-631.9,1230.9c-1.9,11.6-29,36.7-56,56c-102.4,65.7-185.5-21.3-272.5-291.8c-75.4-224.2-75.4-521.7,0-792.3c54.1-202.9,191.3-508.2,307.3-689.9l67.6-108.2l-73.4,9.7c-71.5,9.7-77.3,7.7-158.5-104.4c-102.4-139.1-222.2-367.2-295.6-564.2l-54.1-143l-52.2,143c-92.8,253.1-237.7,514-347.8,631.9c-32.9,34.8-59.9,44.4-104.4,38.6l-61.8-7.7l100.5,172c332.4,562.3,409.7,1068.6,233.8,1509.2c-75.4,187.4-141.1,249.3-220.3,204.8c-59.9-34.8-69.6-50.2-112.1-202.9c-46.4-164.3-173.9-427.1-336.2-695.7c-191.3-315-394.2-602.9-403.9-572c-13.5,38.7,32.8,326.6,83.1,519.8c100.5,382.6,241.5,651.2,475.4,902.4c73.4,79.2,133.3,160.4,133.3,181.6c0,71.5-61.8,117.9-202.9,146.9C4012.5,5018.9,3885,5018.9,3736.2,4982.2z M3890.8,4613.1c-266.7-384.5-407.7-821.3-456-1416.4c-30.9-388.4-5.8-502.4,112.1-502.4c71.5,0,73.4,3.9,237.7,222.2c318.8,425.1,506.3,716.9,686,1062.8c112.1,212.6,121.7,226.1,135.3,175.8c23.2-92.8-9.7-369.1-61.8-537.2c-65.7-210.6-193.2-463.8-347.8-691.8c-137.2-204.8-344-459.9-384.5-475.4c-13.5-5.8-146.9,29-293.7,75.4c-264.7,87-618.4,172-813.5,197.1c-83.1,11.6-100.5,19.3-92.8,44.4c233.8,813.5,326.6,1064.7,490.8,1343c239.6,403.9,544.9,649.3,811.6,651.2h81.2L3890.8,4613.1z M6348.8,4692.4c139.1-67.6,357.5-284,487-483.1c185.5-282.1,297.6-560.4,456-1115c48.3-170.1,92.8-318.8,96.6-332.4c5.8-13.5-42.5-30.9-143-46.4c-224.2-32.9-519.8-106.3-803.9-199l-249.3-81.2l-85,92.7c-228,251.2-485,653.1-595.2,927.5c-77.3,187.4-125.6,411.6-125.6,570.1c0,202.9,15.4,197.1,143-50.2c65.7-125.6,185.5-332.4,266.7-461.8c150.7-233.8,543-778.7,583.6-803.9c29-19.3,112.1-19.3,144.9,1.9c102.4,65.7,40.6,819.3-106.3,1269.6c-88.9,276.3-191.3,469.6-394.2,747.8c-27.1,38.6-25.1,38.6,92.8,27.1C6192.3,4750.3,6281.2,4725.2,6348.8,4692.4z M5863.8,2431.5l83.1-98.6l-247.3-119.8c-135.3-67.6-287.9-146.9-340.1-177.8c-50.2-32.8-96.6-54.1-102.4-48.3c-19.3,17.4,129.5,345.9,220.3,488.9c135.3,208.7,141,224.1,129.5,266.7c-5.8,21.3,29-17.4,81.2-87C5738.2,2586.1,5817.4,2485.6,5863.8,2431.5z M4472.5,2543.6c46.4-69.6,108.2-170.1,135.3-224.2c56-110.2,144.9-340.1,131.4-340.1c-3.9,0-61.8,30.9-127.5,69.6c-63.8,38.6-216.4,117.9-338.2,175.8L4053.1,2331l112.1,137.2c61.8,77.3,133.3,170.1,158.5,206.8c40.6,56,48.3,61.8,54.1,30.9C4381.6,2686.6,4424.2,2613.1,4472.5,2543.6z M2930.4,2431.5c235.8-48.3,678.3-179.7,678.3-201c0-13.5-303.4-309.2-448.3-438.7c-65.7-56-92.7-94.7-92.7-129.5c0-58,61.8-127.5,112.1-127.5c58,0,183.6,100.5,448.3,359.4l247.3,241.5l179.7-79.2c100.5-44.4,262.8-125.6,361.4-179.7c193.2-106.3,237.7-156.5,264.7-307.3c11.6-59.9,7.7-71.5-29-83.1c-73.4-23.2-287.9-241.6-374.9-384.5c-48.3-75.4-114-206.8-146.9-291.8l-61.8-156.5l-454.1,65.7c-403.9,56-459.9,69.6-490.8,106.3c-17.4,23.2-154.6,193.2-305.3,378.8c-239.6,299.5-278.3,355.6-334.3,502.4c-75.4,202.9-77.3,286-5.8,577.8l52.2,218.4l88.9-13.5C2669.6,2483.7,2808.7,2456.6,2930.4,2431.5z M7521.7,2275c71.5-291.8,69.6-363.3-5.8-568.1c-56-146.9-92.8-202.9-334.3-502.4c-150.7-185.5-287.9-355.6-305.3-376.8c-29-36.7-92.7-50.2-492.7-108.2l-459.9-67.6l-21.2,50.2c-11.6,27-54.1,123.7-94.7,212.5l-73.4,160.4l372.9-13.5l371-13.5l50.2,56c27.1,29,129.5,156.5,226.1,282.1c224.2,286,226.1,297.6,48.3,444.4c-148.8,121.7-423.2,394.2-409.7,407.7c40.6,38.6,684.1,204.8,964.3,249.3C7471.5,2506.9,7465.7,2512.7,7521.7,2275z M6225.1,2031.5c54.1-56,170-168.1,255.1-247.3l158.5-144.9l-129.5-170l-127.5-168.1l-411.6,11.6l-413.5,11.6l-104.4,87c-58,46.4-115.9,85-127.5,85c-27.1,0-3.9,123.7,42.5,212.6c27,52.2,73.4,88.9,199,158.5c139.1,79.2,527.5,264.7,552.7,266.7C6124.6,2133.9,6171,2087.5,6225.1,2031.5z M5179.7,1293.3c40.6-19.3,114-71.5,164.2-117.9c87-79.2,87-83.1,25.1-54.1c-52.2,27.1-77.3,29-139.1,9.7c-181.6-54.1-218.3-334.3-65.7-494.7c52.2-58,75.4-67.6,146.9-67.6c48.3,0,104.3,13.5,127.5,29c58,40.6,110.1,185.5,96.6,274.4c-7.7,63.8-1.9,56,56-61.8C5757.5,464.3,5829,41.2,5844.5-689.3c13.5-577.8,3.8-693.7-52.2-693.7c-21.3,0-114-21.3-204.8-48.3c-334.3-96.6-798.1-100.5-1140.1-7.7c-85,23.2-185.5,46.4-224.1,50.3l-73.4,9.7v498.5c0,668.6,36.7,1026.1,144.9,1401c50.2,172,152.6,409.7,210.6,483.1c29,34.8,29,32.9,1.9-32.9c-79.2-199,11.6-401.9,179.7-401.9c96.6,0,170,48.3,214.5,141.1c123.7,257-54.1,514-278.3,401.9c-77.3-38.6-77.3-38.6,32.9,63.8C4828,1337.8,5003.9,1378.4,5179.7,1293.3z M4420.3-1686.4c365.2-94.7,956.5-79.2,1288.9,34.8c59.9,19.3,112.1,32.9,115.9,29c3.8-3.9,1.9-63.8-5.8-133.3c-13.5-125.6-13.5-125.6-59.9-104.4c-36.7,15.4-65.7,13.5-137.2-11.6c-172-61.8-359.4-90.8-604.8-90.8c-262.8,0-398.1,17.4-602.9,81.2c-102.4,30.9-141.1,36.7-175.9,19.3c-42.5-19.3-46.4-15.5-58,38.6c-5.8,32.8-11.6,92.8-11.6,135.3c0,65.7,5.8,75.4,34.8,63.8C4221.3-1632.3,4319.8-1659.3,4420.3-1686.4z M4482.1-2157.9c357.5-87,914-63.8,1200,50.2l114,44.4l-13.5-137.2c-15.5-158.5-29-193.2-50.3-133.3c-29,77.3-100.5,92.8-208.7,44.4c-303.4-129.5-709.2-133.3-1024.2-7.7c-114,46.4-129.5,48.3-173.9,23.2c-40.6-23.2-50.2-42.5-50.2-104.3c0-67.6,7.7-81.2,77.3-119.8c284.1-158.5,809.6-181.6,1178.8-50.2c146.8,52.2,202.9,90.8,204.8,139.1c0,19.3,3.9,21.3,11.6,7.7c7.7-21.2-36.7-282.1-65.7-382.6c-11.6-36.7-11.6-36.7-27.1,3.9c-23.2,61.8-102.4,75.4-220.3,36.7c-258.9-81.2-608.7-81.2-867.6,0c-119.8,36.7-197.1,25.1-214.5-32.8c-7.7-23.2-19.3-32.9-29-25.1c-27.1,30.9-114,544.9-115.9,680.2v63.8l58-30.9C4296.6-2103.7,4395.2-2134.7,4482.1-2157.9z M4648.3-3015.8c260.9-56.1,716.9-27.1,921.7,59.9c69.6,29,71.5,29,58-15.4c-30.9-110.1-150.7-326.6-224.2-401.9c-117.9-121.7-226.1-164.2-413.5-164.2c-133.3,1.9-168.1,7.7-258.9,58c-156.5,86.9-270.5,243.5-359.4,492.7l-25.1,73.4l85-36.7C4478.3-2971.4,4576.8-3002.3,4648.3-3015.8z M4623.2-3701.8c131.4-65.7,139.1-67.6,376.8-67.6c224.1,0,249.3,3.9,347.8,52.2c58,29,119.8,63.8,135.3,75.4c23.2,17.4,90.8-11.6,328.5-137.2c164.2-85,301.4-160.4,305.3-164.2c5.8-3.9-13.5-46.4-40.6-92.8c-115.9-197.1-400-390.3-689.9-471.5c-175.9-46.4-597.1-48.3-772.9,0c-197.1,54.1-392.3,158.5-521.7,278.3c-110.1,102.4-230,266.7-206.8,287.9c17.4,17.4,583.6,315,593.2,311.1C4484.1-3632.3,4547.8-3665.1,4623.2-3701.8z"/></g></g>
</svg>