<?xml version="1.0" encoding="utf-8"?>
<!-- Svg Vector Icons : http://www.onlinewebfonts.com/icon -->
<!DOCTYPE svg PUBLIC "-//W3C//DTD SVG 1.1//EN" "http://www.w3.org/Graphics/SVG/1.1/DTD/svg11.dtd">
<svg version="1.1" xmlns="http://www.w3.org/2000/svg" xmlns:xlink="http://www.w3.org/1999/xlink" x="0px" y="0px" viewBox="0 0 1000 1000" enable-background="new 0 0 1000 1000" xml:space="preserve">
<metadata> Svg Vector Icons : http://www.onlinewebfonts.com/icon </metadata>
<g><g transform="translate(0.000000,511.000000) scale(0.100000,-0.100000)"><path d="M2406.3,3814.7c-467.4-50.2-998.5-260.7-1442.7-573.6c-226-158.4-645-569.7-751.3-735.8C75.2,2290.9,63.6,2148,177.6,2076.6c34.8-19.3,75.3-36.7,90.8-36.7c17.4,0,112,61.8,212.4,135.2c216.3,160.3,585.2,347.6,801.5,409.4c226,63.7,633.4,63.7,840.1,0c268.4-85,569.7-264.6,801.5-477c88.8-83,85-79.2-67.6,30.9c-287.8,208.6-558.1,322.5-867.1,365c-214.4,29-256.9,7.7-312.9-169.9c-56-175.8-56-446.1,0-621.9C1794,1344.6,2105,1024,2585.9,782.6c88.8-44.4,210.5-100.4,268.4-123.6l106.2-44.4l56-158.4l57.9-158.4l-34.8-233.7c-52.1-339.9-56-451.9-21.2-639.2c63.7-330.3,216.3-695.3,442.3-1058.4c71.5-112,129.4-218.2,129.4-233.7c0-50.2,156.4-658.6,183.5-708.8c59.9-115.9,851.7-928.9,965.6-990.7c63.7-34.7,108.2-42.5,260.7-42.5c274.2,0,293.6,13.5,757.1,500.2c214.4,224,413.3,440.3,442.2,478.9c52.1,73.4,141,367,200.9,656.6c23.2,117.8,50.2,181.5,123.6,293.6c204.7,314.8,394,747.4,453.8,1039c38.6,183.5,38.6,421,1.9,623.8c-42.5,233.7-36.7,341.8,23.2,502.1l54.1,139.1l185.4,81.1c685.6,297.4,1071.8,728.1,1112.4,1239.9c11.6,160.3-15.4,351.5-67.6,461.6c-50.2,102.4-108.2,121.7-293.6,96.6c-282-38.6-558.1-152.6-822.7-338c-104.3-73.4-129.4-85-75.3-38.6c129.4,115.9,339.9,260.7,492.5,338c239.5,119.7,384.3,158.4,656.6,168c214.4,7.7,262.6,3.9,434.5-40.6c249.1-63.7,598.7-237.5,840.1-417.1c156.4-115.9,191.2-135.2,239.5-125.5c117.8,21.3,166.1,119.7,129.4,256.9c-69.5,254.9-562,760.9-1017.8,1042.9c-314.8,195.1-569.7,307.1-890.3,390.1c-662.4,171.9-1253.4,90.8-1751.7-239.5c-374.6-249.1-737.7-674-965.6-1125.9l-69.5-141h-191.2h-193.1l-98.5,189.3c-293.6,560.1-787.9,1054.5-1251.5,1249.5C3128.5,3810.8,2794.4,3855.2,2406.3,3814.7z M3107.3,3536.6c169.9-44.4,482.8-198.9,639.2-316.7c71.5-54.1,198.9-171.9,285.8-262.7c237.6-251.1,585.2-799.5,531.1-836.2c-9.7-7.7-108.2-77.3-218.2-156.4c-226-162.2-610.3-407.5-635.4-407.5c-7.7,0-65.7,73.4-127.5,162.2c-345.7,511.8-826.6,907.7-1288.2,1064.1c-515.6,177.7-1000.4,127.5-1554.7-156.4l-202.8-104.3l67.6,83c92.7,112,343.8,326.4,558.1,473.2c338,231.7,786,417.1,1153,479C2520.2,3590.7,2933.5,3579.1,3107.3,3536.6z M7667,3555.9c509.9-75.3,1085.4-359.2,1516-747.4c154.5-137.1,307.1-301.3,268.4-283.9c-11.6,3.9-75.3,40.6-144.8,79.2c-616.1,349.6-1272.7,372.7-1863.7,67.6c-341.8-177.7-724.2-523.4-977.2-884.5c-67.6-96.6-133.3-189.3-144.8-206.6c-19.3-27.1-48.3-15.5-231.7,102.4c-200.9,125.5-527.2,349.6-623.8,428.7L5421,2148l57.9,117.8c102.4,202.8,328.3,519.5,490.5,691.4C6452.3,3467.1,6993,3658.3,7667,3555.9z M2228.6,2196.3c328.3-110.1,654.7-355.3,952.1-712.6l100.4-121.7l-139.1-71.4c-158.4-81.1-200.8-137.1-222.1-289.7l-15.4-102.4l-160.3,79.2c-563.9,272.3-871,643.1-872.9,1052.5c0,54.1,9.7,129.4,21.2,169.9c19.3,71.5,19.3,71.5,100.4,59.9C2037.4,2254.2,2143.6,2225.3,2228.6,2196.3z M8090,2221.4c11.6-27,19.3-113.9,19.3-193.1c0-341.8-195-643.1-573.6-890.3c-131.3-86.9-386.3-218.2-419.1-218.2c-3.8,0-13.5,36.7-21.2,83c-15.4,92.7-59.9,185.4-104.3,222.1c-17.4,11.6-85,50.2-152.6,83l-119.7,57.9l40.6,57.9c85,119.7,357.3,390.1,502.1,500.2c185.4,139.1,422.9,258.8,616.1,309C8064.9,2281.3,8068.7,2281.3,8090,2221.4z M5297.3,1925.9c185.4-139.1,832.4-565.9,1008.1-664.4c106.2-57.9,226-112,266.5-119.7c42.5-7.7,121.7-36.7,173.8-63.7l98.5-50.2l-222.1-15.5c-121.7-7.7-239.5-23.2-260.7-32.8c-23.2-11.6-115.9-170-239.5-413.3l-200.8-394l46.3-85c77.2-139.1,106.2-139.1,430.7,1.9c156.4,65.7,287.7,115.9,293.5,112c23.2-25.1,75.3-424.9,73.4-565.9c-3.9-177.7-40.6-334.1-137.1-579.4c-67.6-173.8-274.2-569.7-297.4-569.7c-7.7,0-34.8,32.8-59.9,73.4c-262.6,395.9-816.9,596.8-1496.7,542.7c-471.2-36.7-855.5-233.7-1050.6-535l-52.1-83L3565-1326.3C3339-926.6,3232.8-578.9,3248.3-297c11.6,210.5,56,502.1,77.3,502.1c7.7,0,141-54.1,293.6-117.8C3937.7-49.8,3972.5-49.8,4034.3,70c21.2,40.6,38.6,90.8,38.6,108.2c0,38.6-376.6,766.7-411.4,795.7c-11.6,11.6-131.3,27-264.6,36.7l-241.4,15.4l106.2,52.1c57.9,29,148.7,61.8,200.8,73.4c133.3,29,789.9,430.7,1151,703c183.5,139.1,212.4,148.7,442.2,139.1C5200.8,1985.8,5224,1980,5297.3,1925.9z M3630.7,531.5c63.7-129.4,108.2-229.8,98.5-227.9c-9.7,3.9-117.8,50.2-241.4,104.3l-226,94.6l-38.6,102.4c-59.9,162.2-61.8,160.3,125.5,160.3h164.2L3630.7,531.5z M6801.8,664.8c-15.4-56-36.7-115.9-46.3-133.3c-13.5-29-461.6-233.7-477-220.2c-7.7,5.8,185.4,395.9,212.4,430.7c13.5,15.4,75.3,23.2,181.5,23.2h160.3L6801.8,664.8z M5449.9-1183.4c320.6-83,567.8-260.7,677.9-486.7l52.1-108.2l-30.9-152.6c-17.4-83-54.1-237.5-81.1-341.8c-50.2-187.3-52.1-191.2-181.6-312.9c-338-318.7-824.6-430.7-1268.8-289.7c-233.7,73.4-513.7,260.7-600.6,403.7c-42.5,67.6-175.7,581.3-175.7,675.9c0,92.7,85,253,189.3,357.3c146.8,146.8,370.8,247.2,650.8,291.6C4864.7-1119.7,5276.1-1139,5449.9-1183.4z M4999.9-3172.6c112,0,239.5,7.7,283.9,15.5l81.1,15.4l-69.5-83c-104.3-125.5-200.9-152.6-426.8-127.5c-29,3.9-216.3,175.7-216.3,197c0,7.7,32.8,7.7,73.4-1.9C4764.3-3166.8,4887.9-3172.6,4999.9-3172.6z"/><path d="M4922.7-1256.8c-218.2-38.6-535-139-697.2-220.2c-83-40.6-113.9-69.5-131.3-115.9c-38.6-110.1-3.9-142.9,384.3-378.6c195.1-117.8,359.2-224,363.1-237.5c17.4-50.2-38.6-189.3-85-210.5c-115.9-52.1-245.3-19.3-484.7,125.5c-57.9,32.8-67.6,34.8-115.9,7.7c-40.5-23.2-56-46.3-59.9-100.4c-5.8-59.9,3.9-77.2,57.9-117.8c102.4-79.2,301.3-164.2,413.3-179.6c131.3-15.5,274.2,19.3,370.8,88.8l73.4,52.1l59.9-52.1c56-52.1,200.8-96.6,303.2-96.6c86.9,0,291.6,77.2,413.3,154.5c117.8,75.3,121.7,81.1,115.9,148.7c-3.9,54.1-19.3,79.2-57.9,100.4c-50.2,29-59.9,25.1-227.9-61.8c-268.5-139-394-123.6-444.2,54.1c-13.5,48.3-21.3,90.8-17.4,94.6s164.2,100.4,355.4,214.4c191.2,114,363.1,224,382.4,245.3c46.4,54.1,40.5,139-9.7,198.9C5780.2-1424.8,5106.2-1224,4922.7-1256.8z M5158.3-1523.3c148.7-30.9,382.4-102.4,405.6-123.6c11.6-9.6-475.1-318.7-546.6-345.7c-25.1-9.6-581.3,328.3-563.9,343.8c32.8,30.9,444.2,148.7,531.1,152.6C5001.9-1494.4,5081.1-1507.9,5158.3-1523.3z"/></g></g>
</svg>