<?xml version="1.0" encoding="utf-8"?>
<!-- Svg Vector Icons : http://www.onlinewebfonts.com/icon -->
<!DOCTYPE svg PUBLIC "-//W3C//DTD SVG 1.1//EN" "http://www.w3.org/Graphics/SVG/1.1/DTD/svg11.dtd">
<svg version="1.1" xmlns="http://www.w3.org/2000/svg" xmlns:xlink="http://www.w3.org/1999/xlink" x="0px" y="0px" viewBox="0 0 1000 1000" enable-background="new 0 0 1000 1000" xml:space="preserve">
<metadata> Svg Vector Icons : http://www.onlinewebfonts.com/icon </metadata>
<g><g transform="translate(0.000000,511.000000) scale(0.100000,-0.100000)"><path d="M4100,4621c-86.9-86.9-123.6-197-123.6-376.7c0-90.8,9.7-202.8,21.3-249.2c9.7-46.4,15.4-86.9,11.6-90.8c-3.9-3.9-67.6,17.4-143,48.3c-262.7,108.2-372.8,127.5-730.2,127.5c-388.3,0-540.9-30.9-562.1-117.8c-30.9-119.8,56-382.5,179.7-544.8c27-34.8,44.4-69.5,38.6-73.4c-5.8-5.8-86.9,0-179.7,13.5c-204.8,27-726.3,11.6-921.4-27.1c-81.1-17.4-148.8-42.5-173.9-67.6c-40.6-40.6-40.6-42.5-7.7-181.6c40.6-171.9,63.8-349.6,81.1-598.8l13.5-189.3h-83.1c-46.4,0-274.3-13.5-506.1-27c-328.4-21.3-430.8-34.8-469.4-59.9c-58-38.6-123.6-170-123.6-251.1c0-146.8,106.2-409.5,258.9-647.1c88.9-135.2,104.3-173.9,71.5-173.9c-38.6,0-280.1-247.3-367-376.7C223,516,134.2,226.3,103.2-160.1c-13.5-154.5,17.4-527.4,50.2-614.3c44.4-117.8,125.6-110.1,272.4,25.1C524.4-658.5,551.4-643,615.2-643c56,0,92.7-13.5,137.2-54.1l61.8-56l-65.7-40.6C514.7-938.6,337-1282.4,311.9-1639.8c-9.7-144.9-7.7-160.3,32.8-200.9c34.8-34.8,54.1-40.6,104.3-29c179.7,40.6,226,46.4,355.4,48.3c75.3,0,139.1-1.9,139.1-5.8s-48.3-58-106.2-119.8c-123.6-133.3-142.9-183.5-98.5-251.1c34.8-52.2,260.8-133.3,434.6-156.5c54.1-7.7,102.4-19.3,108.2-25.1c3.9-7.7-19.3-52.2-50.2-98.5c-115.9-171.9-148.7-459.7-69.5-612.4c48.3-90.8,90.8-94.6,260.8-23.2c81.1,32.8,243.4,85,357.4,114c202.8,50.2,212.5,52.2,376.7,25.1c92.7-13.5,173.9-32.8,183.5-42.5s29-81.1,44.4-158.4c52.1-253.1,239.5-637.5,330.3-680c73.4-32.8,144.9,15.4,164.2,112c21.2,108.2,56,185.4,79.2,177.7c9.7-1.9,32.8-46.4,52.2-94.7c48.3-127.5,108.2-202.8,193.2-247.3c137.2-69.5,224.1-46.4,285.9,77.3c17.4,36.7,42.5,67.6,56,67.6c11.6,0,58-50.2,102.4-110.1c81.1-114,73.4-110.1,305.2-170c38.6-9.7,131.4-27.1,206.7-38.6c133.3-21.2,133.3-21.2,312.9-195.1c200.9-193.2,241.5-206.7,355.4-121.7c36.7,27.1,104.3,67.6,150.7,88.9l83.1,38.6l135.2-44.4c123.6-38.6,148.7-40.6,274.3-21.3c162.3,25.1,490.7,179.6,598.9,282c85,79.2,88.9,133.3,11.6,204.8c-36.7,34.8-58,73.4-58,106.3c0,59.9-19.3,61.8,241.5-30.9c307.2-110.1,722.5-98.5,946.6,27c131.4,73.4,150.7,187.4,42.5,241.5c-42.5,21.3-52.2,38.6-52.2,96.6c0,90.8,34.8,216.4,59.9,216.4c11.6,0,200.9-52.2,423.1-115.9c222.1-63.7,425-115.9,452-115.9c30.9,0,61.8,17.4,81.1,48.3c29,42.5,29,73.4,0,374.8c-17.4,179.6-30.9,353.5-30.9,386.3v59.9h112c100.4,0,195.1-21.3,463.6-100.5c75.4-21.2,85-21.2,125.6,19.3c36.7,36.7,42.5,61.8,38.6,168.1c-3.9,108.2-63.7,326.5-131.3,481c-15.4,34.8-13.5,34.8,40.5,0c30.9-19.3,115.9-81.1,189.3-137.2c139.1-106.3,164.2-115.9,224.1-83.1c54.1,29,79.2,135.2,90.8,407.6c11.6,272.4-15.4,450.1-100.4,633.6c-27.1,58-46.4,106.3-44.4,108.2c3.9,1.9,139.1-3.9,303.3-13.5s309.1-13.5,322.6-7.7s38.6,30.9,56,57.9c30.9,46.4,30.9,56-9.6,179.6c-25.1,71.5-83.1,206.7-129.4,299.4c-202.9,397.9-479.1,649.1-846.1,772.7c-73.4,23.2-139.1,46.4-142.9,48.3c-3.8,3.9,181.6,189.3,411.5,415.3c243.4,239.5,419.2,426.9,417.3,446.2c0,77.3-81.2,121.7-237.6,137.2c-411.4,36.7-790.1,216.4-960.1,457.8l-40.6,54.1l231.8,251.1c278.2,301.3,282,307.1,245.3,397.9c-50.2,117.8-282,229.9-616.2,299.4c-110.1,21.3-114,25.1-102.4,73.4c5.8,29,17.4,168.1,25.1,309.1c11.6,251.1,11.6,256.9-34.8,305.2c-38.6,42.5-59.9,48.3-152.6,42.5c-57.9-1.9-166.1-1.9-239.6,0l-133.3,3.9l40.6,44.4c98.5,104.3,13.5,231.8-245.3,369c-301.3,158.4-736,183.5-1203.5,71.5c-83.1-19.3-152.6-30.9-158.4-27.1c-13.5,13.5,29,168.1,65.7,243.4c50.2,94.7,48.3,152.6-1.9,199c-34.8,30.9-71.5,36.7-247.3,36.7c-189.3,0-214.4-3.9-334.2-61.8c-71.5-32.8-168.1-96.6-214.4-141l-86.9-79.2l-52.2,160.3c-50.2,154.5-114,247.3-171.9,247.3c-15.5,0-46.4-15.4-69.5-34.8c-32.8-27.1-50.2-79.2-77.3-233.7c-19.3-110.1-40.6-202.8-44.4-206.7c-15.5-17.4-258.9,260.8-361.2,411.5c-56,83.1-115.9,162.3-131.4,175.8C4221.7,4682.8,4152.2,4673.1,4100,4621z M4492.2,3977.7c90.8-90.8,177.7-158.4,247.3-189.3c131.4-61.8,195.1-52.2,229.9,34.8c25.1,58,27,58,40.6,17.4c5.8-23.2,32.8-56,59.9-71.5c65.7-44.4,135.2-9.7,220.2,110.1c86.9,123.6,249.2,241.5,380.6,280.1c57.9,17.4,110.1,27,114,21.2c5.8-5.8,1.9-42.5-9.7-85c-11.6-40.6-21.2-148.7-21.2-241.5c0-160.3,1.9-170,48.3-200.9c46.4-30.9,59.9-29,227.9,17.4c442.4,125.6,863.5,144.9,1110.8,50.2c48.3-19.3,48.3-19.3-38.6-73.4c-162.3-104.3-210.6-208.6-125.6-285.9c50.2-46.4,432.7-117.8,726.4-135.2l181.6-11.6l-11.6-191.3c-9.6-142.9-23.2-214.4-56-278.2c-38.7-79.2-40.6-92.7-15.5-139.1c25.1-44.4,54.1-54.1,245.4-92.7c241.5-46.4,488.7-117.9,488.7-139.1c-1.9-7.7-104.3-125.6-231.8-264.7c-171.9-187.4-231.8-264.7-231.8-301.3c0-73.4,137.1-268.5,274.3-392.1c150.7-137.2,417.2-270.4,649.1-326.5l179.6-42.5l-419.2-405.7c-347.7-336.1-417.3-415.3-417.3-459.8c0-86.9,52.2-129.4,166.1-129.4c316.8-1.9,658.7-183.5,869.3-463.6c85-114,239.5-397.9,222.1-413.4c-3.9-3.9-170,1.9-369,13.5c-197.1,9.7-382.5,13.5-411.5,5.8c-56-13.5-94.7-90.8-75.4-150.7c5.8-19.3,46.4-59.9,88.9-86.9c85-57.9,166.1-166.1,214.4-291.7c44.4-112,77.3-357.4,61.8-452l-13.5-75.3l-59.9,40.6c-202.8,135.2-525.4,247.3-600.8,208.6c-85-44.4-92.7-125.6-23.2-218.3c108.2-141,284-498.4,256.9-523.5c-3.9-3.9-71.5,5.8-150.7,23.2c-239.6,52.1-494.5,1.9-564.1-112.1c-15.4-21.2-13.5-129.4,3.9-353.5c15.4-175.8,23.2-324.5,17.4-328.4c-3.9-5.8-193.2,44.4-417.2,108.2c-380.6,110.1-413.4,115.9-454,88.9c-67.6-44.4-137.2-291.7-139.1-492.6c0-154.5-1.9-160.3-48.3-173.9c-88.8-25.1-372.8-11.6-492.6,23.2c-63.8,19.3-179.6,63.7-258.9,100.4c-185.4,85-220.2,85-289.8-11.6c-90.8-125.6-121.7-312.9-71.5-428.8c11.6-25.1-5.8-42.5-79.2-79.2c-110.1-56-282-110.1-353.5-110.1c-27.1,0-85,17.4-125.6,40.6c-100.5,52.2-220.2,38.6-397.9-42.5l-133.3-61.8l-170,164.2c-175.8,171.9-229.9,204.8-289.8,171.9c-25.1-13.5-85-7.7-204.8,17.4c-181.6,40.6-241.5,83.1-243.4,173.9c0,27.1-13.5,69.5-30.9,92.7c-25.1,34.8-48.3,42.5-142.9,42.5c-137.2,0-202.8-23.2-282-98.5c-75.3-73.4-90.8-56-141,139.1c-42.5,166.1-90.8,220.2-183.5,199c-79.2-17.4-197-77.3-245.3-125.6c-23.2-23.2-48.3-32.8-56-25.1c-34.8,36.7-102.4,274.3-110.1,394.1c-15.4,183.5-30.9,200.9-241.5,251.1c-341.9,81.1-477.1,71.5-880.9-59.9c-67.6-23.2-125.6-36.7-131.4-32.8c-3.9,5.8,3.9,54.1,17.4,108.2c32.8,121.7,100.5,212.5,235.7,314.9c115.9,86.9,139.1,129.4,104.3,195.1c-32.8,61.8-48.3,69.5-179.6,83.1c-127.5,13.5-461.7,69.6-473.3,79.2c-7.7,5.8,110.1,112,199,177.7c30.9,23.2,77.3,42.5,102.4,42.5c63.7,0,125.6,69.6,117.8,129.4c-11.6,92.7-77.3,117.8-370.9,141c-146.8,11.6-330.3,15.4-409.5,9.7c-92.7-9.7-142.9-7.7-142.9,5.8c0,9.7,17.4,79.2,40.6,150.7c71.5,233.7,191.2,382.5,386.3,481c125.6,63.7,154.5,123.6,104.3,216.4c-146.8,272.4-419.2,396-645.2,295.6c-46.4-21.2-86.9-38.6-90.8-38.6c-21.3,0-3.9,401.8,23.2,542.8C449,465.8,621,738.2,930,954.5c117.8,83.1,148.7,115.9,148.7,154.5c0,27.1-58,133.3-133.3,247.3c-166.1,249.2-256.9,436.6-268.5,556.3c-7.7,85-5.8,90.8,36.7,90.8c23.2,0,270.4,13.5,546.7,30.9c625.9,36.7,583.4,11.6,575.7,332.2c-3.9,179.7-42.5,579.5-67.6,705.1c-9.7,52.2,459.8,61.8,1079.8,21.3c166.1-11.6,177.7-9.7,229.9,36.7c90.8,77.3,75.3,152.6-63.7,345.8c-65.7,88.9-135.2,199-156.5,247.3c-34.8,79.2-36.7,88.9-5.8,104.3c17.4,9.7,144.9,17.4,284,17.4c189.3-1.9,287.8-11.6,405.7-42.5c199-52.2,432.7-166.1,577.6-280.1c125.6-96.6,183.5-110.1,243.4-50.2c50.2,50.2,48.3,73.4-7.7,208.6c-73.4,173.9-123.6,357.4-137.2,490.7l-11.6,121.7l71.5-86.9C4318.3,4157.4,4414.9,4055,4492.2,3977.7z"/><path d="M4073,2919.1c-564.1-71.5-987.1-270.4-1307.8-614.3c-162.3-171.9-264.6-367-297.5-562.1c-21.3-119.8-19.3-156.5,11.6-285.9l34.8-148.8l-56-324.5c-48.3-280.1-56-370.9-56-689.6c0-291.7,7.7-392.1,34.8-492.6c46.4-170,144.9-372.8,249.2-511.9c108.2-142.9,154.5-235.7,293.6-583.4l108.2-274.3l-11.6-179.7c-7.7-106.2-3.9-226,9.7-295.6c48.3-256.9,256.9-575.7,452-683.8c67.6-38.6,173.9-139.1,322.6-305.2c123.6-135.2,270.4-280.1,328.4-318.7c295.6-199,768.8-235.7,1161-92.7c212.5,77.3,330.3,168.1,566,432.7c129.4,144.9,237.6,249.2,297.5,284c177.7,100.4,355.4,338.1,428.8,575.7c46.4,148.8,52.2,401.8,9.7,562.1l-29,112l96.6,233.8c125.6,303.3,175.8,403.7,272.4,529.3c106.2,139.1,202.8,341.9,249.2,519.6c79.2,316.8,71.5,643.3-30.9,1226.7c-44.5,260.8-46.4,282-17.4,376.7c146.8,494.5-241.5,1070.2-911.8,1348.4c-390.2,162.3-786.2,202.8-1282.7,133.3c-104.3-15.4-177.7-15.4-260.8,0C4613.9,2915.2,4181.2,2932.6,4073,2919.1z M4754.9,2639c85-17.4,135.2-17.4,222.1,0c175.8,36.7,535.1,48.3,726.3,23.2c571.8-77.3,1079.9-411.5,1228.6-807.5c42.5-114,42.5-148.7,7.7-504.2c-7.7-88.9,1.9-199,42.5-425c46.4-251.1,54.1-359.3,56-631.7c0-289.8-5.8-345.8-44.4-473.3c-52.2-166.1-110.1-272.4-229.9-426.9c-46.3-58-125.6-204.8-177.7-324.5c-52.1-119.8-98.5-220.2-102.4-226c-5.8-3.9-67.6,69.5-137.1,164.2c-71.5,96.6-216.4,255-324.5,353.5c-106.3,98.5-226,227.9-264.7,285.9c-38.6,58-131.4,258.9-206.7,444.3c-110.1,272.4-144.9,341.9-187.4,365.1c-48.3,27-56,27-106.2-9.7c-29-23.2-56-58-59.9-79.2c-7.7-48.3,222.1-622,316.8-792c52.2-94.6,144.9-202.8,336.1-392.1c280.1-276.2,390.2-421.1,494.5-645.2c160.4-349.7,117.9-672.3-123.6-940.8c-90.8-100.4-202.8-164.2-390.2-222.1c-123.6-38.6-473.3-104.3-548.6-104.3h-63.7l-88.9,235.7c-50.2,129.4-86.9,237.6-85,239.5c1.9,1.9,181.6,110.1,399.9,239.5c218.3,129.4,411.5,253.1,430.8,274.3c44.4,54.1,42.5,160.3-5.8,208.6c-83.1,83.1-469.4,224.1-797.8,291.7c-185.5,36.7-200.9,36.7-349.7,7.7c-332.3-65.7-776.6-227.9-840.3-307.1c-40.6-48.3-36.7-156.5,5.8-202.8c19.3-21.3,212.5-144.9,428.9-272.4c216.3-127.5,394.1-239.5,394.1-247.3s-38.6-114-85-235.7c-83.1-212.5-88.9-222.1-146.8-227.9c-92.7-9.7-465.6,67.6-652.9,135.2c-139.1,50.2-185.4,77.3-268.5,162.3c-54.1,56-127.5,160.3-162.3,231.8c-56,112-65.7,154.5-71.5,305.2c-15.5,363.2,139.1,643.3,614.3,1112.7c282,278.2,320.7,340,504.2,795.9c133.3,334.2,137.2,392.1,32.8,428.8c-92.7,32.8-137.1-19.3-237.6-282c-177.7-455.9-214.4-515.8-510-807.5c-175.8-173.9-303.3-320.7-382.5-438.5l-117.8-175.8l-32.8,88.8c-75.3,202.8-224.1,492.6-305.2,596.9c-110.1,143-156.5,235.7-210.6,425c-67.6,235.7-59.9,600.8,23.2,1087.6l63.7,376.7l-34.8,137.2c-42.5,171.9-32.8,276.2,42.5,436.6c175.8,374.8,664.5,678,1234.4,768.8C4154.1,2681.5,4610,2669.9,4754.9,2639z M5195.3-1520c177.7-46.4,378.6-121.7,363.2-135.2c-25.1-25.1-660.6-398-676.1-398c-11.6,0-171.9,90.8-361.2,200.9c-326.5,193.2-338.1,202.8-287.8,222.1c29,11.6,75.3,30.9,106.2,42.5c29,11.6,148.8,46.3,264.7,77.3C4847.6-1446.6,4913.3-1446.6,5195.3-1520z M4961.6-2746.7c59.9-152.6,92.7-216.3,125.6-229.9c42.5-19.3,233.7-5.8,448.2,34.8c59.9,9.6,112,15.4,115.9,13.5c1.9-3.9-34.8-48.3-83.1-98.5c-200.9-210.5-604.6-309.1-956.2-235.7c-168.1,36.7-272.4,90.8-397.9,210.5c-104.3,98.5-127.5,139.1-67.6,121.7c17.4-5.8,137.2-23.2,262.7-40.6c195.1-25.1,235.7-25.1,270.4-3.9c25.1,17.4,69.5,104.3,115.9,233.8c40.6,112,77.3,204.8,81.1,204.8C4878.5-2536.2,4919.1-2630.8,4961.6-2746.7z"/><path d="M2913.9,1481.9c-58-58-44.4-127.5,38.6-222.2c19.3-21.2,58-98.5,86.9-173.9c224.1-600.8,726.3-712.8,1300.1-291.7c61.8,46.3,152.6,102.4,199,121.7c98.5,44.4,249.2,199,249.2,256.9c0,48.3-81.1,135.2-125.6,135.2c-17.4,0-71.5-38.6-121.7-85c-79.2-75.3-110.1-88.9-224.1-110.1c-206.7-34.8-546.7-13.5-737.9,48.3c-177.7,58-351.6,162.3-457.8,280.1C3037.6,1530.2,2975.8,1543.7,2913.9,1481.9z M3607.4,902.4c79.2-21.2,170-38.6,202.8-38.6c106.2,0,119.8-30.9,23.2-56c-181.6-44.4-303.3-15.5-409.5,98.5l-56,59.9l48.3-13.5C3443.2,944.9,3528.2,921.7,3607.4,902.4z"/><path d="M6586.2,1406.6c-227.9-216.4-469.4-299.4-880.9-301.4c-347.7,0-392.1,9.7-500.3,115.9c-94.6,94.7-102.4,96.6-173.9,63.7c-56-25.1-77.3-75.3-61.8-139.1c15.5-65.7,150.7-191.3,247.3-235.7c46.3-19.3,127.5-69.6,179.6-110.1c131.4-100.5,380.6-218.3,519.6-245.3c361.2-73.4,666.5,143,803.6,569.9c13.5,42.5,48.3,108.2,79.2,144.9c75.4,96.6,83.1,139.1,34.8,199C6773.6,1547.6,6721.4,1534,6586.2,1406.6z M6331.2,910.1c-104.3-112-260.8-150.7-430.8-102.4c-94.6,25.1-67.6,46.3,86.9,63.7c57.9,5.8,158.4,27,222.1,48.3C6369.9,971.9,6387.2,970,6331.2,910.1z"/></g></g>
</svg>