<?xml version="1.0" encoding="utf-8"?>
<!-- Svg Vector Icons : http://www.onlinewebfonts.com/icon -->
<!DOCTYPE svg PUBLIC "-//W3C//DTD SVG 1.1//EN" "http://www.w3.org/Graphics/SVG/1.1/DTD/svg11.dtd">
<svg version="1.1" xmlns="http://www.w3.org/2000/svg" xmlns:xlink="http://www.w3.org/1999/xlink" x="0px" y="0px" viewBox="0 0 1000 1000" enable-background="new 0 0 1000 1000" xml:space="preserve">
<metadata> Svg Vector Icons : http://www.onlinewebfonts.com/icon </metadata>
<g><g transform="translate(0.000000,511.000000) scale(0.100000,-0.100000)"><path d="M1806.3,4632.2c-135-67.5-281.5-231.4-333.5-372.1c-54-138.8-46.3-318.1,19.3-449.2l42.4-86.8L817.2,2364.9L100,1007.6l23.1-115.7c79-401,302.7-694.1,661.3-867.6c300.8-142.7,582.3-194.7,1004.5-177.4c539.8,19.3,873.4,142.7,1158.7,428c187,187,337.4,501.3,337.4,705.6c0,32.8-250.6,528.3-628.5,1245.5c-347,655.5-634.3,1201.1-638.2,1214.6c-15.4,36.6,412.6,32.8,613.1-5.8c266.1-50.1,549.5-152.3,846.4-306.5c522.5-271.9,896.5-451.2,1156.8-555.3l260.3-102.2V-874.1v-3343.1l-1232-5.8c-1114.4-3.9-1235.8-7.7-1268.6-36.6c-44.3-40.5-44.3-125.3,0-165.8c32.8-30.9,242.9-32.8,2629.8-32.8c2487.1,0,2595.1,1.9,2624,34.7c42.4,46.3,40.5,125.3-1.9,163.9c-32.8,28.9-154.2,32.8-1268.6,36.6l-1232,5.8l-5.8,3308.5l-3.9,3308.4l187-44.4c241-57.8,694.1-127.3,1214.6-190.9c661.3-79,1008.3-202.4,1399.7-497.4c71.3-54,129.2-106,129.2-115.7c0-9.6-296.9-578.4-659.4-1262.8c-362.5-686.4-669-1268.6-682.5-1295.6c-61.7-119.5,100.2-539.8,285.3-742.3c244.9-269.9,576.5-410.7,1070-456.9c177.4-17.4,289.2-17.4,464.6,0c726.9,71.3,1170.3,404.9,1314.9,991l40.5,167.7L9225.2,232.5c-372.1,703.7-676.7,1289.8-676.7,1301.4c0,9.6,19.3,23.1,44.3,30.8c92.6,23.1,221.7,142.7,281.5,264.1c52.1,106,59.8,138.8,59.8,279.6c0,212.1-48.2,341.3-163.9,449.2c-131.1,121.5-242.9,150.4-304.6,82.9c-38.6-42.4-42.4-129.2-7.7-158.1c11.6-11.6,54-38.6,88.7-63.6c104.1-65.6,146.5-156.2,146.5-302.7c0-156.2-46.3-241-162-306.6c-79-44.3-86.8-44.3-136.9-13.5c-63.6,36.6-121.5,40.5-171.6,9.6c-28.9-19.3-55.9-5.8-177.4,86.8c-175.4,133-379.8,241-628.5,331.6c-279.6,102.2-447.3,135-979.4,200.5c-620.8,75.2-850.3,115.7-1228.1,214l-73.3,19.3V3379c0,628.5-3.9,724.9-30.9,750c-28.9,30.8-65.5,38.6-123.4,30.8c-73.3-7.7-77.1-44.3-77.1-746.1c0-374-3.9-680.6-7.7-680.6c-3.9,0-102.2,38.6-217.9,84.8c-225.6,90.6-566.8,256.4-1046.9,509c-505.1,264.1-892.7,374-1359.2,381.7c-158.1,3.8-304.6,5.8-323.9,7.7c-57.8,0-264.1,221.7-266.1,283.4c-5.8,156.2,38.6,256.4,158.1,360.5c84.8,73.3,108,79.1,244.8,71.3c100.3-5.8,158.1,36.6,158.1,113.8c0,84.8-61.7,123.4-208.2,131.1C1925.8,4682.4,1891.1,4674.7,1806.3,4632.2z M2340.3,2301.3c339.3-645.9,615-1176.1,611.2-1179.9c-3.9-3.9-570.7-5.8-1260.9-3.9l-1253.2,5.8l628.5,1189.6c345.1,653.6,634.3,1183.8,642,1176.1C1713.7,3481.2,1999.1,2947.2,2340.3,2301.3z M8941.8,244.1l624.7-1183.8l-1255.1-5.8c-688.3-1.9-1257.1,0-1262.8,3.8c-5.8,7.7,1152.9,2226.9,1224.3,2340.6c15.4,25.1,30.8,42.4,36.6,38.6C8313.3,1431.8,8598.6,895.8,8941.8,244.1z M3015.1,836c0-75.2-142.7-304.6-256.4-410.7c-148.5-136.9-260.3-198.6-485.9-268c-163.9-50.1-194.7-54-568.8-54c-445.4-1.9-553.3,15.4-809.8,138.8C661,352.1,458.6,579.6,393.1,803.2L375.7,863h1320.7C2797.3,863,3015.1,859.1,3015.1,836z M9601.2-1238.5c-40.5-208.2-250.6-455-480.1-568.8c-252.6-123.4-399.1-150.4-804-152.3c-306.6-1.9-379.8,3.8-524.4,40.5c-347,88.7-603.5,271.8-736.5,526.3c-38.6,71.3-69.4,148.5-69.4,171.6v40.5h1313h1314.9L9601.2-1238.5z"/></g></g>
</svg>