<?xml version="1.0" encoding="utf-8"?>
<!-- Svg Vector Icons : http://www.onlinewebfonts.com/icon -->
<!DOCTYPE svg PUBLIC "-//W3C//DTD SVG 1.1//EN" "http://www.w3.org/Graphics/SVG/1.1/DTD/svg11.dtd">
<svg version="1.1" xmlns="http://www.w3.org/2000/svg" xmlns:xlink="http://www.w3.org/1999/xlink" x="0px" y="0px" viewBox="0 0 1000 1000" enable-background="new 0 0 1000 1000" xml:space="preserve">
<metadata> Svg Vector Icons : http://www.onlinewebfonts.com/icon </metadata>
<g><g transform="translate(0.000000,511.000000) scale(0.100000,-0.100000)"><path d="M3996.6,4993.5c-57.9-9.7-189.2-57.9-289.6-108.1c-162.2-79.1-208.5-113.9-397.7-305c-177.6-179.5-227.8-220.1-289.6-231.7c-158.3-29-666.1-185.3-897.7-278c-588.8-231.7-1046.4-507.8-1361.1-820.5c-156.4-156.4-208.5-224-264.5-339.8c-88.8-185.3-106.2-285.7-57.9-343.6c19.3-23.2,121.6-77.2,227.8-119.7l193.1-79.2l-131.3,11.6c-119.7,9.6-133.2,7.7-177.6-36.7c-27-27-48.3-61.8-48.3-75.3c0-54.1,158.3-264.5,291.5-388C1413.5,1306.1,2668.4,810,3807.4,692.2c152.5-17.4,279.9-46.3,492.3-115.8c494.2-164.1,938.3-247.1,1415.1-266.4c239.4-9.6,289.6-5.8,343.6,21.2c61.8,30.9,119.7,117.8,119.7,177.6c0,17.4-44.4,133.2-98.4,256.8c-54.1,123.6-102.3,233.6-108.1,247.1c-5.8,13.5,61.8,59.8,171.8,113.9c249,125.5,486.5,272.2,737.5,457.5c117.8,86.9,249,181.5,293.4,210.4c137.1,88.8,424.7,225.9,544.4,258.7l115.8,32.8l102.3-56c154.4-81.1,706.6-642.9,1002-1019.4c357.2-455.6,347.5-446,449.8-446c96.5,0,175.7,54.1,195,137.1c7.7,25.1-57.9,463.3-142.9,974.9l-156.4,932.5l156.4,942.1c86.9,517.4,152.5,959.5,144.8,978.8c-19.3,63.7-121.6,137.1-189.2,137.1c-98.5-1.9-135.1-34.7-328.2-289.6c-254.8-335.9-511.6-629.4-768.4-878.4c-357.2-347.5-432.5-380.3-673.8-299.2c-266.4,88.8-747.1,347.5-913.2,488.4l-71.4,61.8l23.2,301.2c30.9,413.1,59.8,382.3-473,556C5243.8,4918.3,4425.2,5061.1,3996.6,4993.5z M4647.2,4734.8c413.1-54.1,947.9-187.3,1531-378.4l251-83V4202c0-38.6-5.8-123.6-11.6-187.3l-13.5-117.8l-79.2,48.3c-135.1,84.9-534.8,272.2-714.3,334c-509.7,179.6-1003.9,245.2-1585,212.4c-169.9-9.6-357.2-25.1-415.1-34.7l-106.2-17.4l94.6,84.9c110,96.5,281.9,193.1,390,218.1C4108.6,4769.6,4398.2,4765.7,4647.2,4734.8z M9172.5,3420.1l-135.1-808.9l135.1-808.9c73.4-444,131.3-816.7,129.4-826.3c-3.9-7.7-110.1,112-237.5,268.4c-270.3,332.1-679.6,760.6-847.5,888.1c-241.3,181.5-380.3,214.3-613.9,140.9c-245.2-75.3-492.3-218.2-953.7-552.1C6023.7,1269.4,5301.7,987.6,4585.4,920c-799.3-75.3-1940.2,175.7-2834.1,621.7c-268.4,133.2-613.9,357.2-756.8,490.4l-96.5,88.8l135.1-9.7c75.3-5.8,262.6-17.4,418.9-23.2l281.9-13.5l32.8,50.2c42.5,67.6,25.1,139-44.4,173.8c-29,15.4-274.1,112-544.4,216.2c-270.3,104.3-496.2,193.1-500,195c-3.9,3.9,13.5,48.3,38.6,98.5c61.8,133.2,374.5,436.3,596.6,583c500,328.2,1237.5,615.9,1930.6,754.9c415.1,83,625.5,104.2,1042.5,104.2c565.7,1.9,973-81.1,1471.1-293.4c276.1-119.7,417-200.8,828.2-478.8c463.3-312.7,934.4-536.7,1189.3-561.8c135.1-15.4,237.5,27,426.7,168c245.2,183.4,793.5,772.2,1036.7,1114c32.8,44.4,59.8,69.5,63.7,56C9303.8,4240.6,9245.9,3866.1,9172.5,3420.1z M5826.8,734.7l79.2-179.5h-158.3c-251,0-951.8,102.3-930.6,135.1c5.8,7.7,54.1,19.3,110,27c139,17.4,434.4,94.6,633.2,162.2c90.7,30.9,169.9,52.1,175.7,44.4C5743.8,918.1,5784.3,831.2,5826.8,734.7z"/><path d="M2388.4,3730.9c-112-42.5-181.5-100.4-237.5-195c-148.7-252.9-69.5-540.6,183.4-668c191.1-98.5,395.8-65.6,546.4,83c291.5,291.5,112,776.1-297.3,801.2C2506.2,3756,2434.8,3748.3,2388.4,3730.9z M2699.3,3454.9c189.2-177.6,0-480.7-235.5-382.3c-125.5,52.1-179.6,200.8-117.8,320.5C2409.7,3516.6,2596.9,3549.5,2699.3,3454.9z"/><path d="M5502.5-93.6c-453.7-54.1-986.5-171.8-1544.5-345.6c-449.8-139-557.9-183.4-606.2-247.1c-36.7-50.2-38.6-61.8-15.5-355.2c15.5-214.3,17.4-308.9,1.9-326.3c-79.2-96.5-669.9-420.9-940.2-517.4c-195-69.5-260.6-65.6-390,21.3c-235.5,158.3-714.3,668-1065.7,1133.2C845.9-601.3,749.4-481.6,730-462.3c-46.3,40.5-152.5,42.5-225.9,3.9c-115.8-59.9-117.8-52.1,54.1-1085l158.3-944.1L560.2-3420c-84.9-513.5-150.6-951.8-142.9-974.9c32.8-108.1,158.3-169.9,262.6-129.3c29,11.6,94.6,73.4,144.8,140.9c538.6,700.8,1112,1293.5,1314.7,1355.3c108.1,34.7,586.9-185.4,863-395.8c243.3-185.4,596.6-413.1,824.4-530.9c113.9-57.9,208.5-108.1,208.5-112c0-1.9-48.3-112-106.2-241.3c-57.9-129.3-106.2-252.9-106.2-274.1c0-69.5,59.9-154.4,125.5-183.4c110-44.4,519.3-27,936.3,42.5c243.2,40.5,724,164.1,924.7,237.5c110.1,40.5,227.8,65.6,366.8,79.1c1171.9,119.7,2459.6,631.3,3052.3,1216.3c243.3,237.5,316.6,376.5,239.4,451.8c-34.8,34.8-40.5,36.7-181.5,32.8l-106.2-1.9l179.5,69.5c224,88.8,249.1,119.7,216.2,262.6c-42.5,183.4-131.3,320.5-337.9,529c-447.9,447.9-1191.2,824.4-2092.8,1058L6890.6-721l-164.1,173.8c-191.1,202.7-378.4,334-573.4,403.5c-113.9,40.5-179.6,50.2-361,54.1C5670.4-87.8,5539.2-89.7,5502.5-93.6z M6162.8-414c79.2-40.5,183.4-108.1,229.7-150.6l85-79.2l-90.7,9.6c-749.1,86.9-1361.1,34.8-1936.4-162.1c-243.3-83-544.4-220.1-737.5-334l-115.8-67.6l-13.5,100.4c-5.8,54.1-11.6,139-11.6,187.3v88.8l305,100.4C4697.4-454.6,5303.6-332.9,5765-338.8C6012.2-342.6,6018-342.6,6162.8-414z M1112.3-1327.2c106.2-127.4,293.4-326.3,415.1-444c335.9-324.3,515.5-428.6,702.7-407.4c235.5,27.1,712.4,243.3,1075.3,490.4c119.7,79.2,287.7,193.1,372.6,249.1c451.8,303.1,1075.3,523.2,1660.3,586.9c409.3,44.4,1021.3-5.8,1561.9-127.4c1108.1-249.1,2146.8-822.5,2388.1-1318.6c23.2-46.3,38.6-84.9,34.8-88.8c-3.9-1.9-245.2-94.6-536.7-206.6c-565.7-214.3-606.2-239.4-569.5-339.8c30.9-88.8,54.1-92.7,474.9-61.8c214.3,17.4,395.8,25.1,401.6,21.3c15.4-13.5-173.8-171.8-347.5-291.5c-720.1-494.2-1762.6-837.9-2760.8-909.3c-949.9-69.5-1895.9,239.4-2780.1,905.4c-386.1,291.5-791.5,484.6-1015.5,484.6c-195,0-382.3-127.4-772.2-525.1C1205-3526.2,871-3914.2,753.2-4076.4c-25.1-36.7-48.3-57.9-52.1-46.3c-3.9,9.6,54.1,382.2,127.4,826.3l135.1,805.1l-135.1,810.8c-73.4,446-133.2,822.4-133.2,839.8c0,15.4,50.2-34.8,110-112C865.2-1031.8,1004.2-1199.8,1112.3-1327.2z M4875-4338.9c119.7-27,241.3-48.3,268.3-48.3c112,0,21.3-36.7-185.3-75.3c-278-52.1-525.1-79.1-714.3-79.1h-148.7l34.7,83c19.3,44.4,57.9,131.3,85,191.1l50.2,110.1l196.9-65.6C4570-4259.8,4755.3-4311.9,4875-4338.9z"/><path d="M7240-1389c-349.4-185.3-351.4-664.1-1.9-839.8c276.1-140.9,612,17.4,675.7,312.8c29,129.4,9.7,229.7-63.7,351.4c-83,140.9-200.8,210.4-372.6,222C7359.7-1334.9,7334.6-1338.8,7240-1389z M7579.8-1618.7c158.3-104.3,123.6-349.4-57.9-409.3c-249-81.1-415.1,260.6-200.8,409.3C7377.1-1578.2,7518-1580.1,7579.8-1618.7z"/></g></g>
</svg>