<?xml version="1.0" encoding="utf-8"?>
<!-- Svg Vector Icons : http://www.onlinewebfonts.com/icon -->
<!DOCTYPE svg PUBLIC "-//W3C//DTD SVG 1.1//EN" "http://www.w3.org/Graphics/SVG/1.1/DTD/svg11.dtd">
<svg version="1.1" xmlns="http://www.w3.org/2000/svg" xmlns:xlink="http://www.w3.org/1999/xlink" x="0px" y="0px" viewBox="0 0 1000 1000" enable-background="new 0 0 1000 1000" xml:space="preserve">
<metadata> Svg Vector Icons : http://www.onlinewebfonts.com/icon </metadata>
<g><g transform="translate(0.000000,511.000000) scale(0.100000,-0.100000)"><path d="M5161.5,4648.2c-382.2-102.3-679.5-503.8-679.5-918.9v-121.6L2943.5,2353L1403,1098.2l-324.3-1.9c-318.5,0-324.3,0-370.6-48.3c-27-25.1-48.3-59.9-48.3-75.3c0-27,81.1-154.4,181.5-287.6l54.1-71.4H601.9c-262.5,0-299.2-3.9-347.5-38.6C186.9,526.8,100,356.9,100,277.8c1.9-79.1,59.8-202.7,127.4-266.4c54-50.2,65.6-52.1,378.4-67.6l322.4-15.4L802.7-245.4c-129.3-179.5-150.6-251-92.7-306.9c25.1-25.1,84.9-30.9,361-30.9h332l1544.3-1351.3l1544.3-1353.2v-206.6c1.9-316.6,88.8-509.6,326.2-733.6c133.2-123.6,200.8-162.2,370.6-206.6c137.1-34.7,233.6-36.7,380.3-1.9c193,46.3,318.5,167.9,351.3,341.7c42.5,233.6-191.1,469.1-428.6,434.3c-52.1-7.7-110-15.4-133.2-17.4c-27-1.9-127.4,71.4-293.4,216.2c-140.9,121.6-254.8,225.8-254.8,233.6c0,29,164.1,247.1,256.7,343.6c241.3,250.9,528.9,449.8,945.9,662.1c409.2,206.6,544.4,310.8,770.2,594.6c239.4,299.2,403.4,752.9,461.4,1281.8l23.2,206.6H7868c330.1,0,658.3-5.8,727.7-11.6l127.4-13.5l11.6-104.2c7.7-65.6,28.9-133.2,59.8-179.5c88.8-135.1,303.1-195,442.1-123.6c79.2,42.5,563.7,500,613.9,581.1c56,88.8,65.6,229.7,23.2,318.5c-36.7,77.2-444,521.2-557.9,606.1c-90.7,69.5-183.4,86.9-301.2,56c-92.7-23.2-191.1-96.5-231.6-173.7c-11.6-21.3-27-84.9-32.8-144.8l-11.6-106.2h-139c-77.2,0-413.1,3.9-747.1,5.8l-604.2,3.9l-23.2,150.6c-52.1,326.3-166,679.5-297.3,915c-88.8,158.3-297.3,401.5-457.5,530.9c-73.3,59.8-274.1,177.6-484.5,285.7c-418.9,216.2-681.5,403.4-924.7,660.2c-90.7,94.6-193,223.9-227.8,289.6l-61.8,117.8l216.2,179.5c119.7,98.5,231.6,189.2,249,204.6c29,23.2,48.3,23.2,139-3.9c272.2-79.2,513.5,115.8,492.2,397.7C5846.8,4603.8,5543.7,4752.5,5161.5,4648.2z M5576.6,4387.6c21.2-15.4,46.3-50.2,52.1-77.2c15.4-57.9-29-152.5-79.2-171.8c-25.1-11.6-23.2-1.9,11.6,34.7c57.9,61.8,57.9,142.9,1.9,189.2c-52.1,42.5-92.7,44.4-154.4,3.8l-48.3-30.9l46.3,40.5C5458.8,4424.3,5518.7,4428.1,5576.6,4387.6z M5109.4,4250.5v-129.3L4926,3970.6c-100.4-83-185.3-146.7-189.2-144.8c-1.9,3.9,3.9,48.3,17.4,98.5c30.9,121.6,150.6,297.3,262.5,384.1c48.3,38.6,90.7,69.5,90.7,69.5C5109.4,4378,5109.4,4320,5109.4,4250.5z M4653.8,3235.2c36.7-65.6,140.9-196.9,231.6-291.5c289.6-301.2,586.8-509.6,1083-756.7c121.6-59.9,262.5-140.9,312.7-177.6c113.9-83,301.1-285.7,393.8-426.6c131.3-196.9,270.3-606.2,306.9-899.6l15.4-112l-1967.1,13.5l-1967.1,13.5l-251,171.8l-251,171.8h-251h-251l-129.3,84.9l-127.4,83l1372.5,1121.6c756.7,615.8,1384.1,1121.6,1393.8,1121.6C4580.5,3354.9,4617.1,3300.8,4653.8,3235.2z M1876,768.1l113.9-77.2h256.7c243.2,0,258.7-1.9,314.7-48.3l57.9-46.3l-357.1-1.9c-196.9,0-517.3,5.8-714.2,13.5l-357.1,11.6l-81.1,113.9l-83,112h368.7h366.8L1876,768.1z M9400.7,505.6c191.1-200.7,254.8-278,254.8-314.6c0-71.4-488.4-540.5-563.7-542.4c-88.8,0-112,42.5-112,214.3c0,222-9.6,229.7-314.6,229.7c-131.3,0-500,5.8-820.4,13.5l-583,11.6v104.2v102.3H8088c764.5,0,830.1,1.9,857.1,34.7c21.2,21.2,32.8,83,38.6,185.3c5.8,129.3,13.5,156.4,52.1,187.3c25.1,19.3,59.8,36.7,77.2,36.7C9130.4,768.1,9259.8,650.3,9400.7,505.6z M6209.7,331.8c436.3-5.8,797.3-15.4,806.9-21.2c7.7-3.9,13.5-52.1,13.5-106.2v-96.5l-583,11.6c-322.4,5.8-1440.1,21.2-2486.4,32.8c-1046.3,11.6-2277.9,27-2739.2,32.8c-918.9,15.4-891.9,11.6-862.9,129.3l13.5,52.1l2523-11.6C4283.2,349.2,5775.4,337.6,6209.7,331.8z M2366.3-79.3l289.6-11.6l-81.1-52.1c-77.2-52.1-88.8-54.1-335.9-54.1h-256.7l-113.9-71.4L1754.4-338l-355.2-9.6c-193-3.9-353.3,0-353.3,7.7c0,9.7,44.4,75.3,96.5,148.6L1238.9-62l418.9-1.9C1889.5-65.8,2208-71.6,2366.3-79.3z M5553.4-110.2c733.6-5.8,1360.9-15.4,1395.7-21.3c57.9-9.6,61.8-15.4,61.8-83c0-121.6-71.4-501.9-125.5-677.6c-112-355.2-243.2-565.6-500-805c-119.7-112-200.7-164.1-505.7-320.4c-200.8-104.2-445.9-247.1-546.3-318.5c-231.7-166-530.8-449.8-629.3-600.4c-42.5-63.7-86.9-115.8-98.5-112c-11.6,1.9-650.5,556-1420.8,1229.7C2304.5-1048.4,1794.9-590.9,1814.2-585.1c17.4,3.9,75.3,36.7,127.4,71.4l98.5,65.6h262.5h262.5l258.7,183.4l258.7,183.4l569.5-9.7C3964.7-96.7,4821.8-104.4,5553.4-110.2z M5155.7-3957.5c-7.7-38.6-9.6-104.2-3.9-146.7c11.6-73.3,11.6-73.3-32.8-50.2c-69.5,36.7-231.7,195-279.9,270.3c-56,88.8-106.2,241.3-106.2,322.4v65.6l220.1-193l220.1-195L5155.7-3957.5z M5678.9-4030.9c0-71.4-21.2-108.1-83-133.2c-65.6-27-158.3-7.7-175.7,38.6c-5.8,19.3,3.9,17.4,46.3-5.8c71.4-42.5,156.4-15.4,181.5,59.8c15.4,42.5,11.6,63.7-27,113.9l-44.4,63.7l50.2-46.3C5655.7-3967.2,5678.9-4007.7,5678.9-4030.9z"/></g></g>
</svg>