<?xml version="1.0" encoding="utf-8"?>
<!-- Svg Vector Icons : http://www.onlinewebfonts.com/icon -->
<!DOCTYPE svg PUBLIC "-//W3C//DTD SVG 1.1//EN" "http://www.w3.org/Graphics/SVG/1.1/DTD/svg11.dtd">
<svg version="1.1" xmlns="http://www.w3.org/2000/svg" xmlns:xlink="http://www.w3.org/1999/xlink" x="0px" y="0px" viewBox="0 0 1000 1000" enable-background="new 0 0 1000 1000" xml:space="preserve">
<metadata> Svg Vector Icons : http://www.onlinewebfonts.com/icon </metadata>
<g><g transform="translate(0.000000,511.000000) scale(0.100000,-0.100000)"><path d="M2895.2,4993.4c-629.6-81.1-1230.2-542.7-1519.9-1170.3c-183.5-397.8-187.3-772.5-9.7-1056.4c44.4-71.5,46.4-83,23.2-144.8c-50.2-137.1-25.1-351.5,67.6-571.6c100.4-235.6,374.7-556.2,581.3-675.9c52.1-29,127.5-83,166.1-117.8c38.6-34.8,115.9-77.3,171.9-92.7c125.5-38.6,370.8-38.6,538.8-3.9c69.5,15.5,127.5,25.1,129.4,23.2c5.8-3.9-527.2-401.7-587.1-438.4c-94.6-56-345.7,92.7-523.3,310.9l-96.6,119.7l9.7,150.6c9.7,135.2,7.7,152.5-30.9,191.2c-54.1,54.1-144.8,54.1-183.5-1.9c-23.2-32.8-30.9-92.7-30.9-237.5v-193.1l98.5-129.4c52.1-71.5,146.8-173.8,206.6-227.9c195.1-173.8,477-283.9,604.5-233.7c27,9.7,191.2,123.6,365,253l314.8,235.6l-13.5-83.1c-5.8-46.3-17.4-222.1-25.1-388.2c-5.8-166.1-17.4-310.9-23.2-320.6c-25.1-34.8-681.7-544.6-703-544.6c-112,5.8-320.6,146.8-459.6,312.9l-94.6,113.9v162.2c0,150.6-3.9,164.2-50.2,200.8c-65.7,52.1-96.6,50.2-152.6-7.7c-44.4-42.5-48.3-59.9-48.3-235.6V3.2l98.5-129.4c185.4-249.1,426.8-421,643.1-461.6c142.9-25.1,173.8-9.7,504,251l270.4,212.4l15.4-158.3c7.7-86.9,21.3-226,29-309c7.7-81.1,11.6-156.4,5.8-164.2c-7.7-9.6-166.1-148.7-357.3-310.9c-374.7-320.6-355.4-312.9-509.8-239.5c-77.3,36.7-231.7,173.8-316.7,280c-57.9,75.3-61.8,86.9-56,220.2c3.9,129.4,0,146.8-44.4,191.2c-59.9,57.9-86.9,59.9-154.5,7.7c-48.3-38.6-50.2-46.3-50.2-229.8v-189.3l83-112c104.3-141,291.6-312.8,417.2-382.4c133.2-71.5,289.7-98.5,372.7-63.7c34.8,15.4,197,142.9,361.1,281.9c162.2,139.1,299.3,251.1,301.3,249.1c1.9-3.9,32.8-150.6,67.6-326.4l63.7-320.6L3154-2022.7c-150.6-231.7-222.1-324.4-254.9-334.1c-69.5-17.4-280,48.3-415.2,129.4c-115.9,69.5-121.7,77.2-164.1,208.6c-36.7,112-52.2,139.1-100.4,158.4c-48.3,19.3-65.6,19.3-104.3-5.8c-65.7-44.4-69.5-83.1-19.3-254.9c54.1-187.3,106.2-241.4,370.8-372.7c164.2-81.1,195.1-88.8,349.6-96.6c237.5-11.6,256.8,0,459.6,305.1c90.8,139.1,171.9,251.1,177.7,251.1s32.8-57.9,57.9-131.3c71.5-200.8,204.7-465.4,301.3-592.9c85-112,86.9-117.8,75.3-222.1c-46.4-428.7,403.6-1033.2,824.6-1108.5c56-9.7,77.2-27,113.9-94.6c25.1-44.4,108.2-142.9,183.5-216.3c158.4-156.4,413.3-299.3,600.6-337.9c144.8-30.9,336-15.4,417.1,32.8c57.9,34.8,69.5,34.8,131.3,9.7c359.2-150.6,832.3-117.8,1110.4,73.4c50.2,34.8,104.3,86.9,121.7,115.9c25.1,44.4,52.1,56,156.4,75.3c426.8,79.2,865.2,475.1,903.8,818.8c7.7,65.7,29,119.7,57.9,156.4c108.1,131.3,166.1,322.5,166.1,546.5c-1.9,372.7-185.4,702.9-459.6,828.5c-57.9,27.1-106.2,54.1-106.2,57.9c0,29,127.4,187.3,204.7,256.8c90.8,79.2,233.7,137.1,336,137.1c104.3,0,154.5,133.2,77.2,202.8c-30.9,29-61.8,32.8-168,25.1c-160.3-11.6-297.4-77.2-434.5-204.7c-94.6-88.8-241.4-291.6-287.7-399.8c-13.5-30.9-48.3-92.7-77.2-135.2c-231.7-349.6-276.2-755.1-113.9-1069.9l38.6-75.3l-102.4-57.9c-158.4-88.8-312.9-226-409.4-359.2c-48.3-67.6-86.9-133.2-86.9-144.8c0-27,0-27-179.6,7.7c-83,15.4-198.9,29-254.9,29c-158.4,0-394-52.1-519.5-113.9l-115.9-57.9L5906-3878.5c-61.8,56-162.2,133.3-224,169.9c-137.1,83-380.4,168-484.7,168c-71.5,0-75.3,3.9-98.5,83c-46.4,156.4-162.2,345.7-303.2,496.3l-141,148.7l48.3,65.7c81.1,110.1,173.8,287.8,247.2,480.9c40.5,100.4,77.2,198.9,85,220.1c11.6,27.1,52.1-21.2,195.1-235.6c200.8-305.2,212.4-312.9,426.8-312.9c144.8,0,297.4,44.4,461.6,137.1c210.5,117.8,243.3,154.5,291.6,324.4c50.2,179.6,42.5,245.3-34.8,274.2c-88.8,34.8-141-9.7-187.3-166.1l-40.5-135.2l-154.5-81.1c-179.6-96.6-334.1-137.1-399.8-108.1c-23.2,11.6-135.2,164.2-249.1,339.9l-208.6,320.6l48.3,208.6c25.1,113.9,52.1,254.9,59.9,310.9c7.7,56,19.3,104.3,25.1,108.1c7.7,5.8,154.5-112,330.2-258.8c173.8-148.7,341.8-274.2,370.8-280c160.3-36.7,471.2,127.4,658.5,345.7c191.2,220.2,191.2,220.2,183.5,428.7c-5.8,166.1-9.7,189.3-52.1,222.1c-57.9,46.4-108.1,46.4-156.4-1.9c-32.8-32.8-38.6-63.7-38.6-191.2v-154.5l-94.6-113.9c-102.3-123.6-293.5-262.7-388.2-283.9c-52.1-11.6-73.4,0-179.6,90.8c-67.6,56-227.9,193.1-359.2,305.1L5305.4-750l11.6,86.9c7.7,48.3,17.4,177.7,23.2,289.7c5.8,112,15.4,214.3,19.3,227.9c5.8,17.4,44.4-1.9,117.8-63.7C5790.1-458.4,5962-582,6014.1-593.6c81.1-17.4,268.4,34.8,392,110.1c127.5,75.3,287.8,231.7,403.6,388.2l86.9,117.8l-9.6,193.1c-11.6,168-17.4,197-56,227.9c-48.3,40.6-125.5,30.9-164.2-19.3c-15.4-21.2-25.1-94.6-25.1-195V65l-168-166.1c-170-168-274.2-235.6-372.7-241.4c-40.5-1.9-131.3,59.9-390.1,264.6l-338,264.6l-13.5,276.2c-7.7,150.6-21.3,326.4-29,390.1c-9.7,63.7-15.5,117.8-13.5,119.7c3.9,3.8,139-94.6,303.2-218.2c318.7-239.5,380.4-278.1,440.3-278.1c235.6,0,538.8,200.8,766.7,509.8l85,112V1272c0,222.1-30.9,285.8-137.1,285.8c-88.8,0-113.9-52.1-113.9-241.4v-169.9l-168-166.1c-166.1-164.2-253-222.1-366.9-245.3c-50.2-9.6-92.7,15.5-336,195.1c-366.9,272.3-357.3,262.6-208.6,229.8c164.2-34.8,430.7-34.8,552.3,1.9c54.1,15.4,135.2,61.8,181.5,102.3c46.4,40.5,129.4,98.5,181.5,129.4c254.9,144.8,534.9,531.1,619.9,845.9c32.8,123.6,32.8,312.9,2,390.1c-23.2,50.2-19.3,65.6,38.6,160.3c85,142.9,129.4,353.4,113.9,538.8c-30.9,370.8-293.5,861.3-623.8,1164.5c-372.7,341.8-778.3,504-1270.7,509.8c-343.8,3.9-465.4-15.4-534.9-85c-110.1-110.1-54.1-237.5,133.3-305.1c142.9-52.1,432.6-241.4,583.2-382.4c104.3-96.6,214.4-264.6,214.4-328.3c0-19.3-29-15.4-108.1,11.6c-177.7,61.8-316.7,154.5-500.2,330.2c-96.6,92.7-197,173.8-226,181.5c-69.5,17.4-158.3-32.8-189.3-106.2c-29-69.5,1.9-181.5,146.8-521.4c274.2-652.7,718.4-1172.2,1168.4-1367.3c61.8-27,113.9-56,113.9-65.7c0-9.7-21.2-46.4-46.3-79.2c-25.1-34.8-73.4-115.9-106.2-181.5c-32.8-67.6-65.7-121.7-73.4-121.7c-5.8,0-65.6,21.2-129.4,46.3c-287.8,115.9-633.4,139-874.8,61.8c-36.7-11.6-42.5-1.9-71.4,121.7c-17.4,75.3-30.9,218.2-30.9,320.6c0,179.6-1.9,189.3-56,243.3c-40.6,40.6-75.3,56-121.7,56c-83-1.9-112-27-179.6-150.6c-75.3-139-127.5-177.7-239.5-177.7c-77.3,0-100.4,9.7-152.6,63.7c-32.8,32.8-73.4,94.6-88.8,133.3c-17.4,38.6-50.2,85-73.4,100.4c-63.7,46.4-164.2,38.6-216.3-13.5c-40.6-40.6-46.4-69.5-56-266.5c-7.7-171.9-50.2-405.5-79.2-436.4c-1.9-1.9-46.4,7.7-98.5,23.2c-187.3,57.9-521.4,25.1-789.8-75.3c-71.5-27-139.1-50.2-144.8-50.2c-7.7,0-32.8,40.5-56,92.7c-23.2,50.2-71.5,137.1-110.1,193.1c-77.2,117.8-77.2,119.7-40.5,119.7c48.3,0,310.9,144.8,430.7,237.5c166.1,127.4,374.7,359.2,517.6,571.6c214.4,322.5,473.1,909.6,473.1,1075.7c0,46.4-15.4,75.3-59.9,112c-104.3,86.9-166.1,65.7-334.1-117.8c-61.8-67.6-170-158.4-239.5-206.6c-125.5-81.1-384.3-197-403.6-179.6c-3.8,5.8,9.7,54.1,32.8,108.1c79.2,181.5,442.3,475.1,778.3,627.6c112,52.1,146.8,79.2,166.1,123.6c30.9,73.4,7.7,152.6-57.9,200.9C3563.4,5003,3175.2,5030.1,2895.2,4993.4z M3086.4,4643.8c-220.2-144.8-477-395.9-534.9-521.4C2427.9,3854,2478.1,3657,2677,3630c125.5-15.4,459.6,121.7,648.9,270.4c40.6,30.9,77.2,52.1,81.1,48.3c5.8-3.9-44.4-115.9-112-249.1c-314.8-627.6-687.5-988.8-1156.8-1118.2c-195-54.1-239.5-125.5-139-225.9c150.6-150.6,268.4-339.9,338-544.6c56-162.2,100.4-173.8,303.2-71.5c158.4,81.1,297.4,121.7,479,144.8c131.3,15.5,328.3,0,357.3-30.9c7.7-7.7-19.3-98.5-57.9-198.9l-71.5-183.5l-144.8-13.5c-79.2-5.8-198.9-25.1-268.4-40.5c-305.1-71.5-494.4-57.9-581.3,44.4c-27,30.9-102.3,83-166.1,115.9c-276.2,139.1-585.2,602.5-585.2,880.6c0,54.1,7.7,67.6,48.3,77.2c110.1,27.1,114,139.1,11.6,249.1c-254.9,278.1-245.3,637.3,34.8,1120.1c113.9,198.9,421,511.8,610.3,623.8c253,148.7,536.9,231.7,809.2,233.7l154.5,1.9L3086.4,4643.8z M5792,4705.6c517.5-146.8,979.1-587.1,1174.2-1124c42.5-117.8,52.1-173.8,52.1-334.1c0-218.2-25.1-287.8-168-459.6c-92.7-112-96.6-200.8-11.6-241.4c71.4-32.8,81.1-79.2,46.3-216.3c-83-318.6-351.5-666.3-604.5-774.4c-44.4-19.3-94.6-56-112-81.1c-17.4-27-57.9-59.9-92.7-73.4c-88.8-38.6-339.9-29-534.9,19.3c-90.8,21.3-200.8,40.6-247.2,40.6s-98.5,7.7-117.8,17.4c-19.3,11.6-63.8,94.6-98.5,187.3c-63.7,162.2-63.7,168-29,193.1c59.9,44.4,305.1,42.5,511.8-3.9c69.5-15.4,197-63.7,283.9-104.3c164.2-81.1,237.5-94.6,272.3-52.1c11.6,13.5,42.5,83,67.6,154.5c57.9,158.4,144.8,303.2,266.5,448c52.1,59.9,94.6,123.6,94.6,142.9c0,67.6-54.1,110.1-168,135.2c-365,79.2-728.1,376.6-1004.2,822.7c-96.6,154.5-276.2,506-276.2,538.8c0,7.7,50.2-21.2,112-61.8c198.9-135.2,480.9-254.9,600.6-254.9c85,0,171.9,67.6,197,152.6c19.3,65.7,17.4,100.4-9.6,208.6c-56,231.7-233.7,434.5-581.3,666.3l-173.8,115.9l202.8-9.7C5558.3,4750.1,5710.9,4726.9,5792,4705.6z M4071.3,2289.7c129.4-61.8,318.6-46.3,434.5,34.8l86.9,61.8l11.6-71.4c23.2-133.3,85-347.6,135.2-457.7c27-61.8,48.3-114,48.3-115.9c0-3.9-54.1,11.6-119.7,34.8c-100.4,32.8-171.9,40.5-401.7,40.5c-266.5,1.9-357.3-11.6-529.1-77.2c-23.2-9.7-19.3,15.5,17.4,106.2c61.8,152.6,144.8,436.5,144.8,498.3c0,48.3,1.9,48.3,44.4,17.4C3967,2343.8,4025,2311,4071.3,2289.7z M4559.9,1546.2c148.7-34.8,253-90.8,343.8-181.5c86.9-86.9,119.7-156.4,150.6-318.7c108.2-565.8,71.5-1573.9-85-2346.4c-121.7-606.4-312.9-1129.7-484.7-1326.7c-54.1-61.8-54.1-61.8-156.4-38.6c-73.4,15.4-121.7,15.4-181.5,0c-73.4-19.3-81.1-17.4-123.6,30.9c-71.5,79.2-249.1,453.8-316.7,668.2C3524.8-1395,3418.6-742.3,3385.8-16.1c-19.3,455.8,42.5,1098.8,119.7,1249.5C3656.1,1525,4104.2,1658.2,4559.9,1546.2z M8177-2339.4c85-57.9,191.2-220.2,226-341.8c30.9-108.1,30.9-347.6-1.9-459.6c-15.4-56-59.9-129.4-110.1-185.4c-77.3-85-81.1-98.5-79.2-197c1.9-168-123.6-355.3-345.7-506c-164.1-112-320.6-168-463.5-168c-115.9,0-181.5-34.8-181.5-94.6c0-175.7-448-305.1-795.7-231.7c-106.2,23.2-274.2,98.5-295.5,133.3c-27,44.4-117.8,19.3-179.6-50.2l-63.7-71.5l-142.9,9.7c-289.7,19.3-604.5,237.5-733.9,509.8c-71.5,148.7-75.3,152.6-204.7,144.8c-85-5.8-224,59.9-338,160.3c-173.8,148.7-336,455.8-336,631.5c0,231.7,237.5,191.2,496.3-85c137.1-148.7,229.8-322.5,256.8-486.7c11.6-67.6,32.8-125.5,50.2-139.1c19.3-13.5,92.7-23.2,179.6-23.2c287.7,2,548.4-148.7,797.6-461.5c48.3-57.9,131.3-56,191.2,7.7c181.5,195.1,635.4,241.4,969.5,96.6c100.4-44.4,166.1-11.6,197,94.6c34.8,119.7,79.2,191.2,179.6,295.5c112,113.9,258.8,210.5,415.2,274.2c168,65.7,181.5,125.5,59.9,283.9c-164.2,216.3-175.8,502.1-32.8,795.6l69.5,141l69.5-11.6C8068.9-2279.5,8134.6-2308.5,8177-2339.4z"/></g></g>
</svg>