<?xml version="1.0" encoding="utf-8"?>
<!-- Svg Vector Icons : http://www.onlinewebfonts.com/icon -->
<!DOCTYPE svg PUBLIC "-//W3C//DTD SVG 1.1//EN" "http://www.w3.org/Graphics/SVG/1.1/DTD/svg11.dtd">
<svg version="1.1" xmlns="http://www.w3.org/2000/svg" xmlns:xlink="http://www.w3.org/1999/xlink" x="0px" y="0px" viewBox="0 0 1000 1000" enable-background="new 0 0 1000 1000" xml:space="preserve">
<metadata> Svg Vector Icons : http://www.onlinewebfonts.com/icon </metadata>
<g><g transform="translate(0.000000,511.000000) scale(0.100000,-0.100000)"><path d="M1703.3,4781.2c-334.6-65.8-678.9-270.8-965.1-574.4c-253.4-268.8-444.8-601.5-574.4-994.1c-58-179.9-61.9-210.8-63.8-464.2c0-305.6,38.7-508.7,141.2-733c218.6-481.6,713.7-891.6,1365.5-1131.4c85.1-30.9,141.2-61.9,125.7-65.8c-15.5-5.8-89-25.1-164.4-42.6C1214,692.6,918.1,536,821.4,381.2c-108.3-170.2-58-311.4,203.1-574.4c292-292.1,580.2-431.3,920.6-446.8c158.6-7.7,212.7-1.9,396.5,48.3c118,31,228.2,61.9,245.6,69.6c25.1,11.6,34.8,1.9,42.5-50.3c65.8-458.4,147-771.7,311.4-1214.6c108.3-292,268.8-671.1,400.4-947.7c92.8-195.3,98.6-214.7,143.1-553.1c52.2-394.6,71.6-464.2,177.9-620.8c205-299.8,541.5-524.1,941.9-626.6c241.8-60,640.2-61.9,883.9-2c342.3,83.2,576.4,214.7,793,446.8c236,251.4,286.3,377.1,336.5,856.8c29,278.5,30.9,288.2,137.3,512.5c367.5,779.4,647.9,1620.8,694.3,2081.1c7.7,71.6,15.5,129.6,19.3,129.6c3.8,0,69.6-21.3,147-46.4c346.2-110.2,607.3-116,881.9-13.5c429.4,156.7,866.5,597.6,825.9,831.6c-36.8,224.4-375.2,427.4-895.5,539.6l-158.6,34.8l212.8,83.2c613.1,241.8,1067.6,630.5,1276.5,1090.8c100.6,226.3,143.1,437.1,141.2,738.8c0,253.4-3.9,284.3-63.8,464.2c-214.7,661.5-630.5,1174-1166.3,1439c-224.4,110.2-369.4,145-622.8,145c-181.8-1.9-236-9.7-365.5-54.2c-177.9-60-355.9-172.1-381-237.9c-23.2-61.9,9.7-137.3,63.8-148.9c25.2-5.8,106.4-19.3,179.9-30.9c410-63.8,702.1-263,860.7-589.9c179.8-369.4,179.8-816.2,0-1183.7c-156.7-317.2-400.4-497.1-760.1-558.9c-253.4-44.5-390.7-19.3-692.4,125.7c-665.3,321.1-1208.8,446.8-1941.8,446.8c-823.9,0-1206.9-87-1982.4-454.5c-286.2-135.4-425.5-160.5-669.2-118c-359.7,63.8-607.3,243.7-760.1,557c-106.4,214.7-143.1,396.5-131.5,644c30.9,630.5,384.9,1036.7,980.6,1129.5c224.4,34.8,232.1,38.7,253.4,92.8c29,77.4,0,123.8-129.6,208.9C2349.3,4771.6,1991.5,4837.3,1703.3,4781.2z M2148.2,4537.6c63.8-15.5,71.6-9.7-112.2-79.3c-234-90.9-502.9-323-628.6-541.5c-131.5-232.1-214.7-624.7-187.6-895.5c29-305.6,104.4-529.9,253.4-748.5l102.5-152.8l-129.6,50.3c-371.3,139.2-752.4,413.9-990.2,715.6l-100.6,125.7l61.9,176c150.9,435.2,394.6,791,711.7,1044.4c158.6,125.7,452.6,278.5,584.1,303.6C1819.4,4556.9,2068.9,4556.9,2148.2,4537.6z M8271.5,4537.6c232.1-42.6,626.6-288.2,827.8-514.5c206.9-234,381-531.9,483.5-827.8l61.9-172.1l-52.2-77.4c-87-133.5-367.5-394.6-564.8-524.1c-183.7-123.8-295.9-181.8-502.9-261.1l-102.5-40.6l85.1,119.9c116.1,162.5,158.6,253.4,214.7,444.8c116.1,402.3,65.7,891.6-127.7,1232c-125.7,218.6-394.5,450.6-628.6,541.5c-183.7,69.6-176,63.8-112.1,79.3C7940.7,4558.8,8155.4,4558.8,8271.5,4537.6z M804,2237.9c402.3-276.6,793-413.9,1334.5-475.8c452.6-50.3,673.1-32.9,870.3,67.7c87,44.5,85.1,50.3,52.2-143.1l-23.2-135.4l-114.1-44.5c-303.7-118-375.2-203.1-394.6-466.1l-9.7-141.2l-79.3,13.5c-344.3,56.1-773.6,195.3-1065.7,342.3C1098,1392.7,972.3,1483.7,775,1682.9C533.2,1926.6,392,2207,349.5,2524.2l-13.5,106.4l150.9-141.2C571.9,2412,713.1,2299.8,804,2237.9z M9633.1,2446.8c-63.8-315.3-191.5-551.2-423.6-783.3c-305.6-305.6-742.7-528-1321-676.9c-353.9-90.9-334.6-92.8-334.6,65.8c-1.9,241.8-81.3,334.6-400.4,458.4c-129.6,50.3-137.3,58-148.9,123.8c-5.8,38.7-11.6,98.6-11.6,133.4c0,61.9,0,61.9,54.1,34.8c137.4-69.6,375.2-85.1,750.4-48.4c700.1,67.7,1243.6,299.8,1709.7,731.1c79.3,73.5,148.9,129.6,152.8,127.6C9662.1,2609.3,9652.4,2533.9,9633.1,2446.8z M5606.3,2284.4c323-42.6,642.1-127.7,849.1-228.2c251.4-123.8,265-135.4,286.3-284.3c9.7-69.6,19.3-176,19.3-236v-110.2l-139.3-29c-377.1-81.2-1013.4-116-1843.2-102.5c-758.2,13.5-1088.9,40.6-1406.1,112.2c-87,19.3-92.8,25.1-92.8,81.2c0,34.8,17.4,143.1,38.7,243.7c29,141.2,48.4,193.4,90.9,237.9c119.9,127.6,495.1,257.2,866.5,303.6c96.7,11.6,195.3,25.1,222.4,29C4643.1,2323,5407.1,2311.4,5606.3,2284.4z M7190.3,1228.4c102.5-52.2,110.3-60,121.9-139.2c7.7-44.5,3.8-137.3-9.7-201.2c-21.3-123.8-104.5-369.4-129.6-392.6c-27.1-23.2-533.8-234-541.5-224.4c-3.8,3.9,48.4,150.9,118,324.9c69.6,172.1,154.7,404.2,189.5,512.5C7010.5,1332.8,6995,1325.1,7190.3,1228.4z M3109.4,1114.2c32.9-90.9,123.8-315.3,203.1-500.9c77.4-183.7,139.2-338.5,137.3-342.3c-11.6-9.7-506.7,205-531.9,230.2c-85.1,83.2-174.1,553.1-123.8,646c21.3,40.6,208.9,147,241.8,135.4C3045.6,1278.6,3078.5,1203.2,3109.4,1114.2z M3542.6,1125.8c323-58,713.7-77.4,1477.6-77.4c762,0,1158.5,21.3,1477.6,77.4c85.1,15.5,166.3,27.1,177.9,27.1c13.5,0-1.9-65.8-40.6-168.3c-89-239.8-297.9-756.2-338.5-837.5c-25.2-50.3-73.5-373.3-172.1-1179.8c-77.4-611.2-143.1-1131.4-147-1154.6c-9.7-36.7-15.5-40.6-73.5-23.2c-379.1,108.3-1233.9,123.8-1644,29c-102.5-25.2-108.3-23.2-116,15.5c-5.8,23.2-77.4,528-158.6,1123.7C3863.7-158.4,3828.9,58.2,3792.1,137.5c-77.4,168.3-282.4,634.4-321.1,731.1c-19.3,50.3-54.2,135.4-75.4,187.6c-21.3,54.2-30.9,96.7-23.2,96.7C3380.2,1152.9,3457.5,1141.3,3542.6,1125.8z M2333.9,592c58-11.6,148.9-32.9,205-50.3c90.9-29,102.5-38.7,135.4-121.8c40.6-100.6,42.5-290.1,5.8-508.7c-27.1-152.8-29-154.7-290.1-235.9c-352-108.3-547.3-100.6-822,34.8c-185.7,92.8-334.6,207-456.4,355.9c-137.3,164.4-123.8,205,94.8,319.1C1538.9,557.2,2032.1,648.1,2333.9,592z M8314,572.7c406.2-79.3,767.9-245.6,767.9-355.9c0-15.5-32.9-69.6-73.5-121.9c-230.2-290.1-589.9-491.3-885.8-493.2c-162.5-1.9-435.2,60-588,135.4l-106.4,52.2L7405-65.5c-56.1,353.9-15.4,555.1,123.8,601.5C7776.3,619.1,8016.2,630.7,8314,572.7z M3293.2,64l307.5-131.5l148.9-1077.3c83.2-591.8,150.9-1092.8,148.9-1110.2c0-21.3-36.7-52.2-90.9-81.2c-52.2-25.2-135.4-83.2-185.7-127.7c-50.3-44.5-96.7-79.3-100.6-75.4c-11.6,13.5-168.3,375.2-263,613.1c-210.8,528-357.8,1048.3-377.1,1338.4c-7.7,119.9,0,230.2,29,406.2c23.2,133.5,40.6,274.6,40.6,315.3c0,40.6,7.7,71.6,17.4,67.7C2976,199.4,3122.9,135.6,3293.2,64z M7178.7-162.2c17.4-112.2,30.9-270.8,30.9-353.9c-5.8-280.4-123.8-738.8-326.9-1270.7c-100.6-263-307.5-754.3-324.9-771.7c-5.8-3.9-46.4,27.1-94.8,71.5c-46.4,42.6-119.9,96.7-164.4,118c-63.8,32.9-79.3,52.2-79.3,94.8c0,87,268.8,2193.2,280.4,2206.8c7.7,5.8,148.9,69.6,315.2,139.3l303.7,129.6l13.5-81.2C7138.1,77.6,7159.4-50.1,7178.7-162.2z M5728.2-2421.2c305.6-67.7,543.5-189.5,646-330.7c36.8-54.2,36.8-61.9,9.7-352c-15.5-164.4-38.7-346.2-50.3-404.2c-32.9-164.4-123.8-313.3-276.6-460.3c-241.8-228.2-528-344.3-905.2-365.6c-473.8-27.1-878.1,119.9-1170.1,425.5c-118,121.8-170.2,205-201.1,311.4c-23.2,77.4-94.8,651.8-94.8,752.3c0,197.3,299.8,375.2,750.4,448.7C4695.4-2353.6,5494.1-2369,5728.2-2421.2z"/><path d="M4105.5-2796.5c-52.2-40.6-114.1-311.4-116-520.3c-1.9-174.1,1.9-195.4,61.9-315.3c112.2-230.1,288.2-313.3,628.6-297.8c214.7,11.6,297.8,38.7,313.3,104.4c19.3,79.3-1.9,112.2-118,177.9c-143.1,79.3-203.1,135.4-309.5,284.3c-83.2,116.1-224.4,382.9-251.4,473.8C4283.4-2782.9,4182.8-2738.4,4105.5-2796.5z M4275.7-3370.9c15.5-30.9,73.5-116,127.7-187.6c94.8-123.8,98.6-129.6,46.4-116c-127.7,32.9-195.3,118-216.6,272.7C4219.6-3301.2,4233.1-3291.6,4275.7-3370.9z"/><path d="M5915.7-2788.7c-11.6-7.8-56.1-92.8-98.6-189.5c-141.2-328.8-336.5-578.3-516.4-665.3c-119.9-58-156.7-114.1-121.9-187.6c32.9-71.6,133.5-98.6,355.9-100.6c243.7-1.9,355.9,34.8,485.4,164.4c119.9,118,160.5,234,160.5,450.6c0,166.3-63.8,456.4-110.3,508.7C6039.5-2773.2,5956.4-2761.7,5915.7-2788.7z M5931.2-3421.2c-21.3-112.2-69.6-181.8-162.5-232.1c-94.8-52.2-108.3-25.1-32.9,60c34.8,40.6,92.8,119.9,129.6,177.9c36.8,56.1,71.6,100.6,75.4,94.8C5944.8-3324.5,5940.9-3368.9,5931.2-3421.2z"/></g></g>
</svg>