<?xml version="1.0" encoding="utf-8"?>
<!-- Svg Vector Icons : http://www.onlinewebfonts.com/icon -->
<!DOCTYPE svg PUBLIC "-//W3C//DTD SVG 1.1//EN" "http://www.w3.org/Graphics/SVG/1.1/DTD/svg11.dtd">
<svg version="1.1" xmlns="http://www.w3.org/2000/svg" xmlns:xlink="http://www.w3.org/1999/xlink" x="0px" y="0px" viewBox="0 0 1000 1000" enable-background="new 0 0 1000 1000" xml:space="preserve">
<metadata> Svg Vector Icons : http://www.onlinewebfonts.com/icon </metadata>
<g><g transform="translate(0.000000,511.000000) scale(0.100000,-0.100000)"><path d="M5923.7,4979c-308.8-67.6-538.5-223.9-662.1-447.8c-65.6-123.5-162.1-507.7-245.1-974.8c-57.9-333.9-63.7-397.6-61.8-750.9c0-283.7,11.6-469,42.5-702.6c32.8-243.2,36.7-320.4,19.3-332c-56-34.7-364.8-59.8-584.9-50.2c-361,19.3-621.5,94.6-1100.2,318.5c-424.7,198.8-774,270.2-1142.7,235.5c-731.6-69.5-1345.4-486.4-1482.4-1005.7c-57.9-216.2-25.1-501.9,81.1-696.8c115.8-212.3,486.4-469,611.9-422.7c69.5,27,79.1,65.6,52.1,198.8c-17.4,81.1-17.4,133.2-1.9,189.2c69.5,258.7,422.7,444,745.1,388c250.9-44.4,496.1-193,942-577.1c438.2-374.5,474.8-403.4,577.1-459.4c54.1-29,150.6-71.4,214.3-92.7c65.6-23.2,121.6-46.3,127.4-54c19.3-21.2-177.6-247.1-293.4-333.9c-137-102.3-119.7-102.3-552-17.4c-362.9,71.4-563.6,88.8-714.2,65.6C2262-582,2117.2-680.5,2014.9-877.4c-44.4-83-52.1-125.5-54-247.1c0-123.5,7.7-156.3,48.3-214.2c61.8-90.7,173.7-162.1,299.2-191.1c196.9-44.4,262.5,13.5,222,187.2c-34.7,140.9-9.7,169.9,125.5,156.4c79.1-7.7,133.2-32.8,281.8-133.2c100.4-67.6,260.6-156.4,357.1-198.8c94.6-40.5,173.7-77.2,177.6-79.2c3.9-1.9-19.3-56-52.1-117.7c-32.8-61.8-59.8-121.6-59.8-135.1s-42.5-88.8-94.6-167.9c-52.1-79.1-117.7-212.3-146.7-295.3c-30.9-83-86.9-229.7-129.3-328.1c-86.9-208.5-98.4-364.8-36.7-501.9c92.7-202.7,291.5-185.3,621.5,52.1c117.7,84.9,129.3,90.7,173.7,65.6c61.8-34.8,115.8-32.8,167.9,3.8c25.1,17.4,46.3,27,50.2,25.1c1.9-3.9,29-50.2,57.9-100.4c29-50.2,90.7-139,137.1-195l83-104.2l-86.9-11.6c-164.1-21.2-254.8-11.6-434.3,50.2c-146.7,50.2-210.4,61.8-353.2,61.8c-171.8,1.9-175.7,1.9-405.4-108.1c-127.4-59.8-361-162.1-521.2-227.8c-333.9-135.1-411.1-177.6-542.4-295.3c-175.7-158.3-297.3-438.2-268.3-613.8c25.1-152.5,177.6-249,384.1-249c220,0,868.6,131.3,1893.6,380.3l521.2,127.4l521.2,9.6c640.8,9.6,1748.8-46.3,2586.6-131.3c509.6-52.1,959.3-40.5,1237.3,28.9c444,113.9,644.7,407.3,498,723.8c-86.9,189.2-297.3,482.6-488.4,679.5c-413.1,432.4-947.7,741.2-1613.7,932.3c-222,63.7-627.3,139-843.5,156.3c-94.6,7.7-169.9,19.3-169.9,25.1c0,27,139,272.2,154.4,272.2c9.6,0,54-17.4,102.3-36.7c162.1-69.5,378.3-106.2,621.5-106.2c196.9,1.9,252.9,7.7,368.7,50.2c287.6,102.3,494.2,291.5,633.1,582.9c183.4,380.3,214.3,766.3,129.3,1613.7c-46.3,449.8-46.3,474.9,17.4,878.3c96.5,621.6,131.3,818.4,187.2,1032.7c44.4,171.8,52.1,243.2,52.1,463.3c0,295.3-25.1,471-108.1,733.5c-144.8,457.5-411.1,826.1-768.2,1059.7c-320.4,212.3-671.7,308.8-1167.8,322.4C6145.7,5013.8,6060.8,5008,5923.7,4979z M6251.8,4687.6c135.1-63.7,332-189.2,332-210.4c0-7.7-36.7-27-81.1-40.5c-206.5-59.8-413.1-214.3-509.6-376.4c-166-283.8-169.8-563.6-25.1-1357c127.4-694.9,115.8-812.6-115.8-1154.3c-111.9-167.9-295.3-395.7-306.9-384.1c-3.9,3.9,11.6,63.7,32.8,133.2c112,362.9,137.1,777.9,63.7,1073.2c-283.7,1148.5-154.4,2077,324.3,2326C6080,4757.1,6107.1,4757.1,6251.8,4687.6z M6904.3,4629.7c569.4-258.7,857.1-824.2,857.1-1685.1c0-391.8-48.3-754.7-181.5-1355c-152.5-693-204.6-1102.2-220-1756.5l-13.5-521.2l-57.9-104.2c-81.1-146.7-198.8-220-455.5-285.7c-187.2-46.3-206.5-48.3-305-23.2c-57.9,15.4-108.1,36.7-112,48.3c-3.9,11.6,30.9,30.9,75.3,44.4c150.6,46.3,258.7,113.9,368.7,231.6c84.9,92.7,117.8,146.7,148.6,245.1c52.1,169.9,48.3,239.4-17.4,457.5c-81.1,260.6-106.2,461.3-92.6,745.1c17.4,405.4,119.7,812.6,308.8,1231.5c177.6,391.8,245.1,689.1,258.7,1148.5c7.7,252.9,3.9,360.9-21.2,503.8c-65.6,362.9-223.9,650.5-527,953.6c-98.4,98.4-169.9,179.5-158.3,179.5C6769.1,4687.6,6834.8,4662.5,6904.3,4629.7z M6925.5,4133.6c202.7-270.2,293.4-544.3,301.1-899.5c3.9-171.8-1.9-210.4-42.5-299.2c-56-125.5-181.4-237.4-308.8-279.9l-96.5-30.9l-125.5,65.6c-83,42.5-164.1,67.6-249,77.2c-177.6,19.3-214.3,59.8-256.7,299.2c-46.3,260.6-46.3,617.7-2,747c44.4,127.4,173.7,272.2,295.3,333.9c92.7,46.3,297.3,111.9,357.1,113.9C6813.6,4262.9,6871.5,4205,6925.5,4133.6z M7917.6,3938.6c164.1-285.7,268.3-693,268.3-1048.1c0-142.8-13.5-245.1-57.9-426.6c-30.9-131.3-96.5-482.6-144.8-783.7c-98.4-617.7-104.2-764.4-54-1212.2c44.4-411.1,44.4-957.4,0-1156.2c-81.1-347.4-254.8-592.6-511.5-718.1l-146.7-73.3l-262.5,1.9c-227.8,1.9-279.9,7.7-415,52.1c-84.9,29-164.1,57.9-177.6,65.6c-11.6,9.6,79.2,15.4,202.7,17.4c191.1,0,249,7.7,384.1,52.1c289.5,96.5,463.3,252.9,552.1,492.2c34.7,96.5,40.5,173.7,54,650.5c17.4,664,59.8,1003.7,220,1729.5c250.9,1142.7,235.5,1926.4-48.3,2515.1l-57.9,117.7l56-67.6C7811.5,4110.4,7873.3,4015.8,7917.6,3938.6z M5338.8,2608.7l54-289.5l-65.6-156.3c-34.7-86.9-65.6-154.4-67.5-152.5c-3.8,1.9-19.3,135.1-38.6,293.4c-40.5,364.8-42.5,702.6-7.7,926.5l27,173.7l23.2-252.9C5277.1,3012.1,5309.9,2768.9,5338.8,2608.7z M6516.3,2485.1c113.9-54,233.5-185.3,260.6-289.5c30.9-115.8,11.6-216.2-79.1-380.2c-115.8-210.4-125.5-388-27-532.8l46.3-69.5l-30.9-167.9c-21.2-108.1-32.8-281.8-32.8-480.6l-1.9-312.7l-59.8,9.6c-32.8,5.8-79.2,0-100.4-11.6c-44.4-23.2-48.3-36.7-81.1-359c-19.3-189.2-81.1-559.8-108.1-650.5c-13.5-46.3-63.7-44.4-117.7,7.7c-88.8,83-218.1,36.7-218.1-75.3c0-59.8,81.1-220.1,156.3-305l59.9-67.6l-71.4-179.5c-79.1-198.8-156.4-341.7-252.9-469.1c-38.6-50.2-65.6-108.1-65.6-140.9c0-94.6,42.5-112,318.5-125.5c1073.2-52.1,2019-455.5,2578.8-1102.2c133.2-152.5,283.8-376.4,357.1-525c50.2-100.4,50.2-100.4,13.5-173.7c-121.6-247.1-619.6-324.3-1559.6-239.3c-1335.7,121.6-2474.6,166-2962.9,117.7c-100.4-9.6-496.1-90.7-878.3-181.4c-1050.1-247.1-1335.7-303-1573.2-306.9l-202.7-3.9l-5.8,59.8c-7.7,86.9,65.6,233.6,171.8,339.7c102.3,102.3,210.4,160.2,577.1,310.8c142.8,57.9,339.7,142.9,434.3,189.2c162.1,79.2,183.4,84.9,328.1,83c115.8-2,189.2-15.5,291.5-54.1c117.7-42.5,167.9-50.2,347.4-50.2c115.8,0,266.4,9.7,335.9,21.2c69.5,11.6,250.9,23.2,405.4,25.1c322.4,5.8,453.6,36.7,831.9,202.7c289.5,125.5,386,152.5,637,177.6c391.9,38.6,1001.8-42.4,1538.4-206.5c150.6-44.4,164.1-46.3,208.5-17.4c56,36.7,77.2,108.1,48.3,162.2c-32.8,59.8-422.7,171.8-889.8,254.8c-198.8,36.7-312.7,44.4-646.7,44.4c-488.3,1.9-584.9-15.5-982.5-185.3c-339.7-144.8-515.4-191.1-725.8-194.9c-140.9-3.9-173.7,1.9-233.6,40.5c-150.6,92.6-335.9,339.7-403.4,534.7c-84.9,247.1-67.6,455.5,59.8,708.4c127.4,250.9,237.4,384.1,588.7,710.3C5066.6-1126.4,5392.9-557,5620.6,53c86.9,237.4,167.9,409.2,318.5,675.6c110,196.9,200.8,372.5,200.8,388c0,92.6-123.5,150.6-196.9,92.6c-15.4-13.5-113.9-177.6-218.1-362.9c-235.5-420.8-579.1-897.6-974.8-1351.2c-260.6-301.1-337.8-405.4-600.3-824.2c-171.8-276-324.3-540.5-355.2-623.5c-59.8-150.6-63.7-235.5-44.4-644.7c5.8-110,3.9-115.8-46.3-129.3c-29-7.7-146.7-79.2-262.5-160.2c-272.2-187.2-268.3-187.2-285.7-96.5c-9.7,54.1-1.9,94.6,30.9,169.9c23.2,54,73.3,181.4,110,281.8c81.1,220,142.8,349.4,216.2,442c29,38.6,65.6,104.2,79.1,146.7c65.6,210.4,799.1,1490.2,963.2,1679.3c19.3,21.2,92.7,169.9,166,332c127.4,283.7,133.2,291.5,171.8,264.4c21.2-15.4,54.1-27,71.4-27c50.2,0,210.4,133.2,498,415c503.8,492.2,776,895.6,828.1,1231.5c15.4,96.5,5.8,276-25.1,482.6l-13.5,90.7h88.8C6390.8,2525.7,6468,2508.3,6516.3,2485.1z M7114.7,2342.3c-61.8-212.3-84.9-256.7-86.9-164.1c0,36.7-17.4,106.2-38.6,152.5s-36.7,84.9-34.7,86.9c3.9,1.9,50.2,23.2,102.3,52.1c54,27,98.4,46.3,102.3,46.3C7161,2514.1,7141.7,2434.9,7114.7,2342.3z M2632.6,2016.1c223.9-36.7,320.4-69.5,631.2-214.3c299.2-140.9,588.7-245.2,804.9-291.5c198.8-40.5,735.4-44.4,909.1-3.9c65.6,15.4,119.7,25.1,119.7,23.2c0-15.4-330.1-766.3-499.9-1136.9l-193-424.7L4283-26.1c-160.2,5.8-359,69.5-494.1,158.3c-59.8,38.6-196.9,148.6-303.1,243.2c-445.9,399.6-820.4,664-1042.3,739.3c-160.2,56-438.2,75.3-588.7,42.5c-148.6-32.8-335.9-129.3-444-231.6c-96.5-90.7-212.3-301.1-212.3-382.2c0-65.6-25.1-54.1-121.6,52.1c-117.7,131.3-154.4,245.1-144.8,459.4c3.9,142.8,15.4,187.2,69.5,297.3c121.6,249,409.2,459.4,806.9,592.6C2096,2041.2,2343.1,2062.4,2632.6,2016.1z M5360,1423.5c-27-96.5-75.3-235.5-108.1-308.8c-57.9-139-200.7-393.8-229.7-411.1c-9.6-5.8,56,156.4,142.8,361c86.9,202.7,175.7,416.9,194.9,472.9C5416,1693.7,5416,1618.5,5360,1423.5z M6753.7-134.2c52.1-160.2,54-258.7,5.8-361c-29-65.6-173.7-229.7-189.2-216.2c-1.9,3.9,11.6,96.5,30.9,206.5c21.2,111.9,42.5,264.4,50.2,337.8C6674.6,45.3,6693.9,51.1,6753.7-134.2z M5084-555c-104.2-193-343.6-540.5-428.5-625.4c-50.2-48.3-127.4-117.8-175.7-154.4l-86.9-67.6l48.3,77.2c137,227.8,252.9,384.1,457.5,617.7c123.5,142.8,227.8,256.7,231.6,252.9S5113-502.9,5084-555z M3173.1-850.4c330.1-63.7,540.5-75.3,602.2-34.7c21.2,15.4,63.7,42.5,96.5,63.7l57.9,36.7l-40.5-67.6c-21.2-36.7-94.6-167.9-162.1-289.5c-67.6-121.6-125.5-225.8-127.4-229.7c-17.4-23.2-347.4,139-532.8,260.6c-227.8,150.6-285.7,171.8-459.4,171.8c-173.7-1.9-328.1-125.5-328.1-262.5c0-65.6-48.3-57.9-69.5,7.7c-50.2,154.4,69.5,339.7,258.7,401.5C2555.4-763.5,2850.7-788.6,3173.1-850.4z"/><path d="M6861.8,3695.4c-112-96.5-42.5-281.8,108.1-281.8c90.7,0,150.6,44.4,166,123.5C7166.8,3703.1,6989.2,3805.4,6861.8,3695.4z M7039.4,3593.1c23.2-90.7-110-131.3-137.1-40.5c-17.4,48.3,21.2,92.6,79.2,92.6C7014.3,3645.2,7029.7,3631.7,7039.4,3593.1z"/><path d="M6246,3656.8c-59.8-25.1-106.2-98.4-106.2-167.9c0-61.8,102.3-152.5,173.7-152.5s173.7,90.7,173.7,154.4c0,71.4-54,148.6-117.7,171.8c-34.8,11.6-61.8,21.2-63.7,21.2C6304,3681.9,6276.9,3670.3,6246,3656.8z M6359.9,3562.2c69.5-50.2-7.7-162.1-79.2-117.7c-46.3,29-52.1,73.3-15.4,111.9C6304,3593.1,6315.5,3595,6359.9,3562.2z"/></g></g>
</svg>